<?xml version="1.0" encoding="UTF-8"?>
<mxfile host="app.diagrams.net" modified="2022-11-18T19:34:58.245Z" agent="5.0 (X11)" etag="XuQ9U9ShOfNn87nyC4E1" version="20.4.0" type="google">
  <diagram id="rLDlN7DbNAh7FuR19A_p" name="Page-1">
    <mxGraphModel dx="1663" dy="537" grid="1" gridSize="10" guides="1" tooltips="1" connect="1" arrows="1" fold="1" page="1" pageScale="1" pageWidth="850" pageHeight="1100" math="0" shadow="0">
      <root>
        <mxCell id="0" />
        <mxCell id="1" parent="0" />
        <mxCell id="mps1uX8T5PpobUmjtMyG-1" value="" style="rounded=1;whiteSpace=wrap;html=1;fillColor=#bac8d3;strokeColor=#23445d;" parent="1" vertex="1">
          <mxGeometry x="-243" y="133" width="380" height="430" as="geometry" />
        </mxCell>
        <mxCell id="mps1uX8T5PpobUmjtMyG-2" value="" style="rounded=1;whiteSpace=wrap;html=1;fillColor=#b1ddf0;strokeColor=#10739e;" parent="1" vertex="1">
          <mxGeometry x="167" y="133" width="380" height="430" as="geometry" />
        </mxCell>
        <mxCell id="mps1uX8T5PpobUmjtMyG-3" value="" style="rounded=1;whiteSpace=wrap;html=1;opacity=30;" parent="1" vertex="1">
          <mxGeometry x="577" y="133" width="380" height="430" as="geometry" />
        </mxCell>
        <mxCell id="mps1uX8T5PpobUmjtMyG-4" value="" style="rounded=1;whiteSpace=wrap;html=1;fillColor=#d5e8d4;strokeColor=#82b366;" parent="1" vertex="1">
          <mxGeometry x="-281" y="1133" width="340" height="160" as="geometry" />
        </mxCell>
        <mxCell id="mps1uX8T5PpobUmjtMyG-5" value="" style="rounded=1;whiteSpace=wrap;html=1;strokeColor=#23445d;fillColor=#CFD3D4;" parent="1" vertex="1">
          <mxGeometry x="84" y="1133" width="340" height="160" as="geometry" />
        </mxCell>
        <mxCell id="mps1uX8T5PpobUmjtMyG-6" value="" style="rounded=0;whiteSpace=wrap;html=1;" parent="1" vertex="1">
          <mxGeometry x="446" y="997" width="580" height="300" as="geometry" />
        </mxCell>
        <mxCell id="mps1uX8T5PpobUmjtMyG-38" value="" style="group" parent="1" vertex="1" connectable="0">
          <mxGeometry x="-103" y="343" width="90" height="160" as="geometry" />
        </mxCell>
        <mxCell id="mps1uX8T5PpobUmjtMyG-39" value="" style="rounded=0;whiteSpace=wrap;html=1;fillColor=none;strokeWidth=6;" parent="mps1uX8T5PpobUmjtMyG-38" vertex="1">
          <mxGeometry width="90" height="160" as="geometry" />
        </mxCell>
        <mxCell id="mps1uX8T5PpobUmjtMyG-40" value="" style="endArrow=none;html=1;strokeWidth=6;" parent="mps1uX8T5PpobUmjtMyG-38" edge="1">
          <mxGeometry width="50" height="50" relative="1" as="geometry">
            <mxPoint x="70" y="14" as="sourcePoint" />
            <mxPoint x="20" y="14" as="targetPoint" />
            <Array as="points">
              <mxPoint x="50" y="14" />
            </Array>
          </mxGeometry>
        </mxCell>
        <mxCell id="mps1uX8T5PpobUmjtMyG-41" value="" style="endArrow=none;html=1;strokeWidth=6;" parent="mps1uX8T5PpobUmjtMyG-38" edge="1">
          <mxGeometry width="50" height="50" relative="1" as="geometry">
            <mxPoint x="70" y="27" as="sourcePoint" />
            <mxPoint x="20" y="27" as="targetPoint" />
            <Array as="points">
              <mxPoint x="50" y="27" />
            </Array>
          </mxGeometry>
        </mxCell>
        <mxCell id="mps1uX8T5PpobUmjtMyG-42" value="" style="rounded=1;whiteSpace=wrap;html=1;strokeWidth=1;fillColor=#CFD3D4;" parent="mps1uX8T5PpobUmjtMyG-38" vertex="1">
          <mxGeometry x="10" y="40" width="70" height="110" as="geometry" />
        </mxCell>
        <mxCell id="mps1uX8T5PpobUmjtMyG-209" value="&lt;font color=&quot;#080808&quot;&gt;Kubernetes&lt;/font&gt;" style="text;html=1;strokeColor=none;fillColor=none;align=center;verticalAlign=middle;whiteSpace=wrap;rounded=0;fontSize=8;fontColor=#696969;" parent="mps1uX8T5PpobUmjtMyG-38" vertex="1">
          <mxGeometry x="25" y="40" width="40" height="20" as="geometry" />
        </mxCell>
        <mxCell id="mps1uX8T5PpobUmjtMyG-92" value="" style="group" parent="1" vertex="1" connectable="0">
          <mxGeometry x="-83" y="233" width="55" height="100" as="geometry" />
        </mxCell>
        <mxCell id="mps1uX8T5PpobUmjtMyG-93" value="" style="rounded=0;whiteSpace=wrap;html=1;fillColor=none;strokeWidth=3;" parent="mps1uX8T5PpobUmjtMyG-92" vertex="1">
          <mxGeometry x="-1.5714285714285714" width="39.285714285714285" height="72.72727272727272" as="geometry" />
        </mxCell>
        <mxCell id="mps1uX8T5PpobUmjtMyG-94" value="" style="endArrow=none;html=1;strokeWidth=3;" parent="mps1uX8T5PpobUmjtMyG-92" edge="1">
          <mxGeometry width="50" height="50" relative="1" as="geometry">
            <mxPoint x="29.857142857142858" y="8.181818181818182" as="sourcePoint" />
            <mxPoint x="6.2857142857139285" y="8.181818181818182" as="targetPoint" />
            <Array as="points">
              <mxPoint x="29.857142857142858" y="8.181818181818182" />
            </Array>
          </mxGeometry>
        </mxCell>
        <mxCell id="mps1uX8T5PpobUmjtMyG-95" value="" style="endArrow=none;html=1;strokeWidth=3;" parent="mps1uX8T5PpobUmjtMyG-92" edge="1">
          <mxGeometry width="50" height="50" relative="1" as="geometry">
            <mxPoint x="29.857142857142858" y="12.727272727272727" as="sourcePoint" />
            <mxPoint x="6.2857142857139285" y="12.727272727272727" as="targetPoint" />
            <Array as="points">
              <mxPoint x="29.857142857142858" y="12.727272727272727" />
            </Array>
          </mxGeometry>
        </mxCell>
        <mxCell id="mps1uX8T5PpobUmjtMyG-96" value="" style="endArrow=none;html=1;strokeWidth=3;" parent="mps1uX8T5PpobUmjtMyG-92" edge="1">
          <mxGeometry width="50" height="50" relative="1" as="geometry">
            <mxPoint x="29.857142857142858" y="17.272727272727273" as="sourcePoint" />
            <mxPoint x="6.2857142857139285" y="17.272727272727273" as="targetPoint" />
            <Array as="points">
              <mxPoint x="29.857142857142858" y="17.272727272727273" />
            </Array>
          </mxGeometry>
        </mxCell>
        <mxCell id="mps1uX8T5PpobUmjtMyG-97" value="" style="endArrow=none;html=1;strokeWidth=3;" parent="mps1uX8T5PpobUmjtMyG-92" edge="1">
          <mxGeometry width="50" height="50" relative="1" as="geometry">
            <mxPoint x="29.857142857142858" y="21.818181818181817" as="sourcePoint" />
            <mxPoint x="6.2857142857139285" y="21.818181818181817" as="targetPoint" />
            <Array as="points">
              <mxPoint x="29.857142857142858" y="21.818181818181817" />
            </Array>
          </mxGeometry>
        </mxCell>
        <mxCell id="mps1uX8T5PpobUmjtMyG-98" value="" style="group" parent="1" vertex="1" connectable="0">
          <mxGeometry x="-181.43000000000006" y="183" width="55" height="100" as="geometry" />
        </mxCell>
        <mxCell id="mps1uX8T5PpobUmjtMyG-99" value="" style="rounded=0;whiteSpace=wrap;html=1;fillColor=none;strokeWidth=3;" parent="mps1uX8T5PpobUmjtMyG-98" vertex="1">
          <mxGeometry x="-1.5714285714285714" width="39.285714285714285" height="72.72727272727272" as="geometry" />
        </mxCell>
        <mxCell id="mps1uX8T5PpobUmjtMyG-100" value="" style="endArrow=none;html=1;strokeWidth=3;" parent="mps1uX8T5PpobUmjtMyG-98" edge="1">
          <mxGeometry width="50" height="50" relative="1" as="geometry">
            <mxPoint x="29.857142857142858" y="8.181818181818182" as="sourcePoint" />
            <mxPoint x="6.2857142857139285" y="8.181818181818182" as="targetPoint" />
            <Array as="points">
              <mxPoint x="29.857142857142858" y="8.181818181818182" />
            </Array>
          </mxGeometry>
        </mxCell>
        <mxCell id="mps1uX8T5PpobUmjtMyG-101" value="" style="endArrow=none;html=1;strokeWidth=3;" parent="mps1uX8T5PpobUmjtMyG-98" edge="1">
          <mxGeometry width="50" height="50" relative="1" as="geometry">
            <mxPoint x="29.857142857142858" y="12.727272727272727" as="sourcePoint" />
            <mxPoint x="6.2857142857139285" y="12.727272727272727" as="targetPoint" />
            <Array as="points">
              <mxPoint x="29.857142857142858" y="12.727272727272727" />
            </Array>
          </mxGeometry>
        </mxCell>
        <mxCell id="mps1uX8T5PpobUmjtMyG-102" value="" style="endArrow=none;html=1;strokeWidth=3;" parent="mps1uX8T5PpobUmjtMyG-98" edge="1">
          <mxGeometry width="50" height="50" relative="1" as="geometry">
            <mxPoint x="29.857142857142858" y="17.272727272727273" as="sourcePoint" />
            <mxPoint x="6.2857142857139285" y="17.272727272727273" as="targetPoint" />
            <Array as="points">
              <mxPoint x="29.857142857142858" y="17.272727272727273" />
            </Array>
          </mxGeometry>
        </mxCell>
        <mxCell id="mps1uX8T5PpobUmjtMyG-103" value="" style="endArrow=none;html=1;strokeWidth=3;" parent="mps1uX8T5PpobUmjtMyG-98" edge="1">
          <mxGeometry width="50" height="50" relative="1" as="geometry">
            <mxPoint x="29.857142857142858" y="21.818181818181817" as="sourcePoint" />
            <mxPoint x="6.2857142857139285" y="21.818181818181817" as="targetPoint" />
            <Array as="points">
              <mxPoint x="29.857142857142858" y="21.818181818181817" />
            </Array>
          </mxGeometry>
        </mxCell>
        <mxCell id="mps1uX8T5PpobUmjtMyG-105" value="" style="group" parent="1" vertex="1" connectable="0">
          <mxGeometry x="37" y="176" width="55" height="100" as="geometry" />
        </mxCell>
        <mxCell id="mps1uX8T5PpobUmjtMyG-106" value="" style="rounded=0;whiteSpace=wrap;html=1;fillColor=none;strokeWidth=3;" parent="mps1uX8T5PpobUmjtMyG-105" vertex="1">
          <mxGeometry x="-1.5714285714285714" y="92" width="39.285714285714285" height="72.72727272727272" as="geometry" />
        </mxCell>
        <mxCell id="mps1uX8T5PpobUmjtMyG-107" value="" style="endArrow=none;html=1;strokeWidth=3;" parent="mps1uX8T5PpobUmjtMyG-105" edge="1">
          <mxGeometry width="50" height="50" relative="1" as="geometry">
            <mxPoint x="29.857142857142858" y="100.18181818181819" as="sourcePoint" />
            <mxPoint x="6.2857142857139285" y="100.18181818181819" as="targetPoint" />
            <Array as="points">
              <mxPoint x="29.857142857142858" y="100.18181818181819" />
            </Array>
          </mxGeometry>
        </mxCell>
        <mxCell id="mps1uX8T5PpobUmjtMyG-108" value="" style="endArrow=none;html=1;strokeWidth=3;" parent="mps1uX8T5PpobUmjtMyG-105" edge="1">
          <mxGeometry width="50" height="50" relative="1" as="geometry">
            <mxPoint x="29.857142857142858" y="104.72727272727272" as="sourcePoint" />
            <mxPoint x="6.2857142857139285" y="104.72727272727272" as="targetPoint" />
            <Array as="points">
              <mxPoint x="29.857142857142858" y="104.72727272727272" />
            </Array>
          </mxGeometry>
        </mxCell>
        <mxCell id="mps1uX8T5PpobUmjtMyG-109" value="" style="endArrow=none;html=1;strokeWidth=3;" parent="mps1uX8T5PpobUmjtMyG-105" edge="1">
          <mxGeometry width="50" height="50" relative="1" as="geometry">
            <mxPoint x="29.857142857142858" y="109.27272727272728" as="sourcePoint" />
            <mxPoint x="6.2857142857139285" y="109.27272727272728" as="targetPoint" />
            <Array as="points">
              <mxPoint x="29.857142857142858" y="109.27272727272728" />
            </Array>
          </mxGeometry>
        </mxCell>
        <mxCell id="mps1uX8T5PpobUmjtMyG-110" value="" style="endArrow=none;html=1;strokeWidth=3;" parent="mps1uX8T5PpobUmjtMyG-105" edge="1">
          <mxGeometry width="50" height="50" relative="1" as="geometry">
            <mxPoint x="29.857142857142858" y="113.81818181818181" as="sourcePoint" />
            <mxPoint x="6.2857142857139285" y="113.81818181818181" as="targetPoint" />
            <Array as="points">
              <mxPoint x="29.857142857142858" y="113.81818181818181" />
            </Array>
          </mxGeometry>
        </mxCell>
        <mxCell id="mps1uX8T5PpobUmjtMyG-173" value="" style="ellipse;shape=cloud;whiteSpace=wrap;html=1;strokeWidth=3;fillColor=#dae8fc;gradientColor=#7ea6e0;strokeColor=#DBFFFF;" parent="1" vertex="1">
          <mxGeometry x="-83" y="983" width="132" height="90" as="geometry" />
        </mxCell>
        <mxCell id="mps1uX8T5PpobUmjtMyG-174" value="" style="ellipse;shape=cloud;whiteSpace=wrap;html=1;strokeWidth=3;fillColor=#dae8fc;gradientColor=#7ea6e0;strokeColor=#DBFFFF;" parent="1" vertex="1">
          <mxGeometry x="22" y="1014" width="132" height="90" as="geometry" />
        </mxCell>
        <mxCell id="mps1uX8T5PpobUmjtMyG-175" value="" style="ellipse;shape=cloud;whiteSpace=wrap;html=1;strokeWidth=3;fillColor=#dae8fc;gradientColor=#7ea6e0;strokeColor=#DBFFFF;" parent="1" vertex="1">
          <mxGeometry x="124.57" y="983" width="132" height="90" as="geometry" />
        </mxCell>
        <mxCell id="mps1uX8T5PpobUmjtMyG-176" value="" style="ellipse;shape=cloud;whiteSpace=wrap;html=1;strokeWidth=3;fillColor=#dae8fc;gradientColor=#7ea6e0;strokeColor=#DBFFFF;" parent="1" vertex="1">
          <mxGeometry x="227.57" y="1014" width="132" height="90" as="geometry" />
        </mxCell>
        <mxCell id="mps1uX8T5PpobUmjtMyG-177" value="" style="outlineConnect=0;fontColor=#232F3E;gradientColor=none;fillColor=#232F3E;strokeColor=none;dashed=0;verticalLabelPosition=bottom;verticalAlign=top;align=center;html=1;fontSize=12;fontStyle=0;aspect=fixed;pointerEvents=1;shape=mxgraph.aws4.mobile_client;" parent="1" vertex="1">
          <mxGeometry x="310.57" y="1163" width="52.56" height="100" as="geometry" />
        </mxCell>
        <mxCell id="mps1uX8T5PpobUmjtMyG-178" value="" style="fontColor=#0066CC;verticalAlign=top;verticalLabelPosition=bottom;labelPosition=center;align=center;html=1;outlineConnect=0;fillColor=#CCCCCC;strokeColor=#6881B3;gradientColor=none;gradientDirection=north;strokeWidth=2;shape=mxgraph.networks.pc;" parent="1" vertex="1">
          <mxGeometry x="127.57" y="1163" width="128" height="95" as="geometry" />
        </mxCell>
        <mxCell id="mps1uX8T5PpobUmjtMyG-179" value="" style="fontColor=#0066CC;verticalAlign=top;verticalLabelPosition=bottom;labelPosition=center;align=center;html=1;outlineConnect=0;fillColor=#CCCCCC;strokeColor=#6881B3;gradientColor=none;gradientDirection=north;strokeWidth=2;shape=mxgraph.networks.pc;" parent="1" vertex="1">
          <mxGeometry x="-212" y="1173.5" width="128" height="95" as="geometry" />
        </mxCell>
        <mxCell id="mps1uX8T5PpobUmjtMyG-180" value="" style="pointerEvents=1;shadow=0;dashed=0;html=1;strokeColor=none;fillColor=#505050;labelPosition=center;verticalLabelPosition=bottom;verticalAlign=top;outlineConnect=0;align=center;shape=mxgraph.office.servers.reverse_proxy;" parent="1" vertex="1">
          <mxGeometry x="58" y="490" width="72" height="73" as="geometry" />
        </mxCell>
        <mxCell id="mps1uX8T5PpobUmjtMyG-183" value="" style="pointerEvents=1;shadow=0;dashed=0;html=1;strokeColor=#005700;fillColor=#008a00;labelPosition=center;verticalLabelPosition=bottom;verticalAlign=top;align=center;outlineConnect=0;shape=mxgraph.veeam.2d.proxy_appliance;fontColor=#ffffff;" parent="1" vertex="1">
          <mxGeometry x="-32" y="1145" width="72.8" height="70" as="geometry" />
        </mxCell>
        <mxCell id="mps1uX8T5PpobUmjtMyG-187" value="" style="endArrow=none;html=1;strokeWidth=1;edgeStyle=elbowEdgeStyle;startArrow=classic;startFill=1;endFill=0;" parent="1" target="mps1uX8T5PpobUmjtMyG-180" edge="1">
          <mxGeometry relative="1" as="geometry">
            <mxPoint x="-13" y="433" as="sourcePoint" />
            <mxPoint x="87" y="433" as="targetPoint" />
          </mxGeometry>
        </mxCell>
        <mxCell id="mps1uX8T5PpobUmjtMyG-188" value="&lt;div style=&quot;font-size: 8px;&quot;&gt;TCP 31773&lt;/div&gt;" style="edgeLabel;resizable=0;html=1;align=center;verticalAlign=middle;fontSize=8;" parent="mps1uX8T5PpobUmjtMyG-187" connectable="0" vertex="1">
          <mxGeometry relative="1" as="geometry" />
        </mxCell>
        <mxCell id="mps1uX8T5PpobUmjtMyG-191" value="" style="endArrow=classic;html=1;strokeWidth=1;edgeStyle=elbowEdgeStyle;entryX=0;entryY=0.5;entryDx=0;entryDy=0;shadow=0;startArrow=classic;startFill=1;strokeColor=#7A7A7A;" parent="1" source="mps1uX8T5PpobUmjtMyG-39" target="mps1uX8T5PpobUmjtMyG-214" edge="1">
          <mxGeometry relative="1" as="geometry">
            <mxPoint x="-3" y="443" as="sourcePoint" />
            <mxPoint x="314.9699999999998" y="424.03999999999996" as="targetPoint" />
          </mxGeometry>
        </mxCell>
        <mxCell id="mps1uX8T5PpobUmjtMyG-192" value="&lt;div&gt;TCP 6443&lt;/div&gt;&lt;div&gt;TCP 2379 - 2380&lt;/div&gt;&lt;div&gt;TCP 10250/10251/10252/10255&lt;/div&gt;&lt;div&gt;TCP 3000-32767&lt;/div&gt;&lt;div&gt;TCP 6379&lt;br&gt;&lt;/div&gt;" style="edgeLabel;resizable=0;html=1;align=center;verticalAlign=middle;fontSize=8;" parent="mps1uX8T5PpobUmjtMyG-191" connectable="0" vertex="1">
          <mxGeometry relative="1" as="geometry">
            <mxPoint x="-12" y="12" as="offset" />
          </mxGeometry>
        </mxCell>
        <mxCell id="mps1uX8T5PpobUmjtMyG-193" value="" style="endArrow=classic;html=1;strokeWidth=1;edgeStyle=orthogonalEdgeStyle;exitX=1.056;exitY=0.147;exitDx=0;exitDy=0;exitPerimeter=0;entryX=0.5;entryY=1;entryDx=0;entryDy=0;" parent="1" source="mps1uX8T5PpobUmjtMyG-39" target="mps1uX8T5PpobUmjtMyG-106" edge="1">
          <mxGeometry relative="1" as="geometry">
            <mxPoint x="-3" y="443" as="sourcePoint" />
            <mxPoint x="52" y="546.5" as="targetPoint" />
          </mxGeometry>
        </mxCell>
        <mxCell id="mps1uX8T5PpobUmjtMyG-194" value="TCP 9200/9300" style="edgeLabel;resizable=0;html=1;align=center;verticalAlign=middle;fontSize=8;" parent="mps1uX8T5PpobUmjtMyG-193" connectable="0" vertex="1">
          <mxGeometry relative="1" as="geometry" />
        </mxCell>
        <mxCell id="mps1uX8T5PpobUmjtMyG-195" value="" style="endArrow=classic;html=1;strokeWidth=1;edgeStyle=orthogonalEdgeStyle;exitX=-0.008;exitY=0.16;exitDx=0;exitDy=0;exitPerimeter=0;entryX=0.5;entryY=1;entryDx=0;entryDy=0;" parent="1" source="mps1uX8T5PpobUmjtMyG-39" target="mps1uX8T5PpobUmjtMyG-99" edge="1">
          <mxGeometry relative="1" as="geometry">
            <mxPoint x="2.0399999999999636" y="376.52" as="sourcePoint" />
            <mxPoint x="44.485714285714494" y="256.4909090909089" as="targetPoint" />
          </mxGeometry>
        </mxCell>
        <mxCell id="mps1uX8T5PpobUmjtMyG-196" value="&lt;div&gt;TCP 9000/9092&lt;/div&gt;" style="edgeLabel;resizable=0;html=1;align=center;verticalAlign=middle;fontSize=8;" parent="mps1uX8T5PpobUmjtMyG-195" connectable="0" vertex="1">
          <mxGeometry relative="1" as="geometry" />
        </mxCell>
        <mxCell id="mps1uX8T5PpobUmjtMyG-197" value="" style="endArrow=classic;html=1;strokeWidth=1;entryX=0.5;entryY=1;entryDx=0;entryDy=0;edgeStyle=orthogonalEdgeStyle;" parent="1" target="mps1uX8T5PpobUmjtMyG-93" edge="1">
          <mxGeometry relative="1" as="geometry">
            <mxPoint x="-65" y="342" as="sourcePoint" />
            <mxPoint x="-132.18357142857144" y="257.36363636363603" as="targetPoint" />
          </mxGeometry>
        </mxCell>
        <mxCell id="mps1uX8T5PpobUmjtMyG-198" value="TCP 9042 / 9160" style="edgeLabel;resizable=0;html=1;align=center;verticalAlign=middle;fontSize=8;" parent="mps1uX8T5PpobUmjtMyG-197" connectable="0" vertex="1">
          <mxGeometry relative="1" as="geometry" />
        </mxCell>
        <mxCell id="mps1uX8T5PpobUmjtMyG-199" value="" style="rounded=1;whiteSpace=wrap;html=1;fontSize=8;strokeColor=#DBFFFF;strokeWidth=3;fillColor=#CFD3D4;" parent="1" vertex="1">
          <mxGeometry x="-233" y="313" width="40" height="60" as="geometry" />
        </mxCell>
        <mxCell id="mps1uX8T5PpobUmjtMyG-200" value="&lt;div&gt;Admin&lt;/div&gt;&lt;div&gt;Host&lt;br&gt;&lt;/div&gt;" style="text;html=1;strokeColor=none;fillColor=none;align=center;verticalAlign=middle;whiteSpace=wrap;rounded=0;fontSize=8;fontColor=#696969;" parent="1" vertex="1">
          <mxGeometry x="-233" y="332" width="40" height="20" as="geometry" />
        </mxCell>
        <mxCell id="mps1uX8T5PpobUmjtMyG-201" value="" style="endArrow=classic;html=1;strokeWidth=1;exitX=0.5;exitY=1;exitDx=0;exitDy=0;edgeStyle=orthogonalEdgeStyle;" parent="1" source="mps1uX8T5PpobUmjtMyG-199" edge="1">
          <mxGeometry relative="1" as="geometry">
            <mxPoint x="2.0399999999999636" y="376.52" as="sourcePoint" />
            <mxPoint x="-103" y="383" as="targetPoint" />
            <Array as="points">
              <mxPoint x="-213" y="383" />
            </Array>
          </mxGeometry>
        </mxCell>
        <mxCell id="mps1uX8T5PpobUmjtMyG-202" value="TCP 6379" style="edgeLabel;resizable=0;html=1;align=center;verticalAlign=middle;fontSize=8;" parent="mps1uX8T5PpobUmjtMyG-201" connectable="0" vertex="1">
          <mxGeometry relative="1" as="geometry" />
        </mxCell>
        <mxCell id="mps1uX8T5PpobUmjtMyG-203" value="MinIO" style="text;html=1;strokeColor=none;fillColor=none;align=center;verticalAlign=middle;whiteSpace=wrap;rounded=0;fontSize=8;" parent="1" vertex="1">
          <mxGeometry x="-183" y="163" width="40" height="20" as="geometry" />
        </mxCell>
        <mxCell id="mps1uX8T5PpobUmjtMyG-204" value="&lt;div&gt;Elastic&lt;/div&gt;&lt;div&gt;Search&lt;br&gt;&lt;/div&gt;" style="text;html=1;strokeColor=none;fillColor=none;align=center;verticalAlign=middle;whiteSpace=wrap;rounded=0;fontSize=8;" parent="1" vertex="1">
          <mxGeometry x="35" y="244" width="40" height="20" as="geometry" />
        </mxCell>
        <mxCell id="mps1uX8T5PpobUmjtMyG-205" value="Cassandra" style="text;html=1;strokeColor=none;fillColor=none;align=center;verticalAlign=middle;whiteSpace=wrap;rounded=0;fontSize=8;" parent="1" vertex="1">
          <mxGeometry x="-85" y="211" width="40" height="20" as="geometry" />
        </mxCell>
        <mxCell id="mps1uX8T5PpobUmjtMyG-208" value="Load Balancer / Reverse Proxy" style="text;html=1;strokeColor=none;fillColor=none;align=center;verticalAlign=middle;whiteSpace=wrap;rounded=0;fontSize=8;" parent="1" vertex="1">
          <mxGeometry x="-29" y="541" width="80" height="20" as="geometry" />
        </mxCell>
        <mxCell id="mps1uX8T5PpobUmjtMyG-210" value="" style="rounded=0;whiteSpace=wrap;html=1;fontSize=8;strokeColor=#6c8ebf;strokeWidth=3;fillColor=#dae8fc;" parent="1" vertex="1">
          <mxGeometry x="-83" y="433" width="50" height="30" as="geometry" />
        </mxCell>
        <mxCell id="mps1uX8T5PpobUmjtMyG-211" value="WIRE" style="text;html=1;strokeColor=none;fillColor=none;align=center;verticalAlign=middle;whiteSpace=wrap;rounded=0;fontSize=8;fontColor=#0D0D0D;" parent="1" vertex="1">
          <mxGeometry x="-78" y="438" width="40" height="20" as="geometry" />
        </mxCell>
        <mxCell id="mps1uX8T5PpobUmjtMyG-212" value="Server 1" style="text;html=1;strokeColor=none;fillColor=none;align=center;verticalAlign=middle;whiteSpace=wrap;rounded=0;fontSize=12;fontColor=#0D0D0D;fontStyle=1" parent="1" vertex="1">
          <mxGeometry x="-93" y="143" width="55" height="20" as="geometry" />
        </mxCell>
        <mxCell id="mps1uX8T5PpobUmjtMyG-213" value="" style="group" parent="1" vertex="1" connectable="0">
          <mxGeometry x="309" y="343" width="90" height="160" as="geometry" />
        </mxCell>
        <mxCell id="mps1uX8T5PpobUmjtMyG-214" value="" style="rounded=0;whiteSpace=wrap;html=1;fillColor=none;strokeWidth=6;" parent="mps1uX8T5PpobUmjtMyG-213" vertex="1">
          <mxGeometry width="90" height="160" as="geometry" />
        </mxCell>
        <mxCell id="mps1uX8T5PpobUmjtMyG-215" value="" style="endArrow=none;html=1;strokeWidth=6;" parent="mps1uX8T5PpobUmjtMyG-213" edge="1">
          <mxGeometry width="50" height="50" relative="1" as="geometry">
            <mxPoint x="70" y="14" as="sourcePoint" />
            <mxPoint x="20" y="14" as="targetPoint" />
            <Array as="points">
              <mxPoint x="50" y="14" />
            </Array>
          </mxGeometry>
        </mxCell>
        <mxCell id="mps1uX8T5PpobUmjtMyG-216" value="" style="endArrow=none;html=1;strokeWidth=6;" parent="mps1uX8T5PpobUmjtMyG-213" edge="1">
          <mxGeometry width="50" height="50" relative="1" as="geometry">
            <mxPoint x="70" y="27" as="sourcePoint" />
            <mxPoint x="20" y="27" as="targetPoint" />
            <Array as="points">
              <mxPoint x="50" y="27" />
            </Array>
          </mxGeometry>
        </mxCell>
        <mxCell id="mps1uX8T5PpobUmjtMyG-217" value="" style="rounded=1;whiteSpace=wrap;html=1;strokeWidth=1;fillColor=#CFD3D4;" parent="mps1uX8T5PpobUmjtMyG-213" vertex="1">
          <mxGeometry x="10" y="40" width="70" height="110" as="geometry" />
        </mxCell>
        <mxCell id="mps1uX8T5PpobUmjtMyG-218" value="&lt;font color=&quot;#080808&quot;&gt;Kubernetes&lt;/font&gt;" style="text;html=1;strokeColor=none;fillColor=none;align=center;verticalAlign=middle;whiteSpace=wrap;rounded=0;fontSize=8;fontColor=#696969;" parent="mps1uX8T5PpobUmjtMyG-213" vertex="1">
          <mxGeometry x="25" y="40" width="40" height="20" as="geometry" />
        </mxCell>
        <mxCell id="mps1uX8T5PpobUmjtMyG-219" value="" style="group" parent="1" vertex="1" connectable="0">
          <mxGeometry x="329" y="231" width="55" height="100" as="geometry" />
        </mxCell>
        <mxCell id="mps1uX8T5PpobUmjtMyG-220" value="" style="rounded=0;whiteSpace=wrap;html=1;fillColor=none;strokeWidth=3;" parent="mps1uX8T5PpobUmjtMyG-219" vertex="1">
          <mxGeometry x="-1.5714285714285714" y="-8" width="39.285714285714285" height="72.72727272727272" as="geometry" />
        </mxCell>
        <mxCell id="mps1uX8T5PpobUmjtMyG-221" value="" style="endArrow=none;html=1;strokeWidth=3;" parent="mps1uX8T5PpobUmjtMyG-219" edge="1">
          <mxGeometry width="50" height="50" relative="1" as="geometry">
            <mxPoint x="29.857142857142858" y="0.18181818181818166" as="sourcePoint" />
            <mxPoint x="6.2857142857139285" y="0.18181818181818166" as="targetPoint" />
            <Array as="points">
              <mxPoint x="29.857142857142858" y="0.18181818181818166" />
            </Array>
          </mxGeometry>
        </mxCell>
        <mxCell id="mps1uX8T5PpobUmjtMyG-222" value="" style="endArrow=none;html=1;strokeWidth=3;" parent="mps1uX8T5PpobUmjtMyG-219" edge="1">
          <mxGeometry width="50" height="50" relative="1" as="geometry">
            <mxPoint x="29.857142857142858" y="4.727272727272727" as="sourcePoint" />
            <mxPoint x="6.2857142857139285" y="4.727272727272727" as="targetPoint" />
            <Array as="points">
              <mxPoint x="29.857142857142858" y="4.727272727272727" />
            </Array>
          </mxGeometry>
        </mxCell>
        <mxCell id="mps1uX8T5PpobUmjtMyG-223" value="" style="endArrow=none;html=1;strokeWidth=3;" parent="mps1uX8T5PpobUmjtMyG-219" edge="1">
          <mxGeometry width="50" height="50" relative="1" as="geometry">
            <mxPoint x="29.857142857142858" y="9.272727272727273" as="sourcePoint" />
            <mxPoint x="6.2857142857139285" y="9.272727272727273" as="targetPoint" />
            <Array as="points">
              <mxPoint x="29.857142857142858" y="9.272727272727273" />
            </Array>
          </mxGeometry>
        </mxCell>
        <mxCell id="mps1uX8T5PpobUmjtMyG-224" value="" style="endArrow=none;html=1;strokeWidth=3;" parent="mps1uX8T5PpobUmjtMyG-219" edge="1">
          <mxGeometry width="50" height="50" relative="1" as="geometry">
            <mxPoint x="29.857142857142858" y="13.818181818181817" as="sourcePoint" />
            <mxPoint x="6.2857142857139285" y="13.818181818181817" as="targetPoint" />
            <Array as="points">
              <mxPoint x="29.857142857142858" y="13.818181818181817" />
            </Array>
          </mxGeometry>
        </mxCell>
        <mxCell id="mps1uX8T5PpobUmjtMyG-225" value="" style="group" parent="1" vertex="1" connectable="0">
          <mxGeometry x="230.56999999999994" y="183" width="55" height="100" as="geometry" />
        </mxCell>
        <mxCell id="mps1uX8T5PpobUmjtMyG-226" value="" style="rounded=0;whiteSpace=wrap;html=1;fillColor=none;strokeWidth=3;" parent="mps1uX8T5PpobUmjtMyG-225" vertex="1">
          <mxGeometry x="-1.5714285714285714" y="85" width="39.285714285714285" height="72.72727272727272" as="geometry" />
        </mxCell>
        <mxCell id="mps1uX8T5PpobUmjtMyG-227" value="" style="endArrow=none;html=1;strokeWidth=3;" parent="mps1uX8T5PpobUmjtMyG-225" edge="1">
          <mxGeometry width="50" height="50" relative="1" as="geometry">
            <mxPoint x="29.857142857142858" y="93.18181818181819" as="sourcePoint" />
            <mxPoint x="6.2857142857139285" y="93.18181818181819" as="targetPoint" />
            <Array as="points">
              <mxPoint x="29.857142857142858" y="93.18181818181819" />
            </Array>
          </mxGeometry>
        </mxCell>
        <mxCell id="mps1uX8T5PpobUmjtMyG-228" value="" style="endArrow=none;html=1;strokeWidth=3;" parent="mps1uX8T5PpobUmjtMyG-225" edge="1">
          <mxGeometry width="50" height="50" relative="1" as="geometry">
            <mxPoint x="29.857142857142858" y="97.72727272727272" as="sourcePoint" />
            <mxPoint x="6.2857142857139285" y="97.72727272727272" as="targetPoint" />
            <Array as="points">
              <mxPoint x="29.857142857142858" y="97.72727272727272" />
            </Array>
          </mxGeometry>
        </mxCell>
        <mxCell id="mps1uX8T5PpobUmjtMyG-229" value="" style="endArrow=none;html=1;strokeWidth=3;" parent="mps1uX8T5PpobUmjtMyG-225" edge="1">
          <mxGeometry width="50" height="50" relative="1" as="geometry">
            <mxPoint x="29.857142857142858" y="102.27272727272728" as="sourcePoint" />
            <mxPoint x="6.2857142857139285" y="102.27272727272728" as="targetPoint" />
            <Array as="points">
              <mxPoint x="29.857142857142858" y="102.27272727272728" />
            </Array>
          </mxGeometry>
        </mxCell>
        <mxCell id="mps1uX8T5PpobUmjtMyG-230" value="" style="endArrow=none;html=1;strokeWidth=3;" parent="mps1uX8T5PpobUmjtMyG-225" edge="1">
          <mxGeometry width="50" height="50" relative="1" as="geometry">
            <mxPoint x="29.857142857142858" y="106.81818181818181" as="sourcePoint" />
            <mxPoint x="6.2857142857139285" y="106.81818181818181" as="targetPoint" />
            <Array as="points">
              <mxPoint x="29.857142857142858" y="106.81818181818181" />
            </Array>
          </mxGeometry>
        </mxCell>
        <mxCell id="mps1uX8T5PpobUmjtMyG-231" value="" style="group" parent="1" vertex="1" connectable="0">
          <mxGeometry x="449" y="186" width="55" height="100" as="geometry" />
        </mxCell>
        <mxCell id="mps1uX8T5PpobUmjtMyG-232" value="" style="rounded=0;whiteSpace=wrap;html=1;fillColor=none;strokeWidth=3;" parent="mps1uX8T5PpobUmjtMyG-231" vertex="1">
          <mxGeometry x="-1.5714285714285714" width="39.285714285714285" height="72.72727272727272" as="geometry" />
        </mxCell>
        <mxCell id="mps1uX8T5PpobUmjtMyG-233" value="" style="endArrow=none;html=1;strokeWidth=3;" parent="mps1uX8T5PpobUmjtMyG-231" edge="1">
          <mxGeometry width="50" height="50" relative="1" as="geometry">
            <mxPoint x="29.857142857142858" y="8.181818181818182" as="sourcePoint" />
            <mxPoint x="6.2857142857139285" y="8.181818181818182" as="targetPoint" />
            <Array as="points">
              <mxPoint x="29.857142857142858" y="8.181818181818182" />
            </Array>
          </mxGeometry>
        </mxCell>
        <mxCell id="mps1uX8T5PpobUmjtMyG-234" value="" style="endArrow=none;html=1;strokeWidth=3;" parent="mps1uX8T5PpobUmjtMyG-231" edge="1">
          <mxGeometry width="50" height="50" relative="1" as="geometry">
            <mxPoint x="29.857142857142858" y="12.727272727272727" as="sourcePoint" />
            <mxPoint x="6.2857142857139285" y="12.727272727272727" as="targetPoint" />
            <Array as="points">
              <mxPoint x="29.857142857142858" y="12.727272727272727" />
            </Array>
          </mxGeometry>
        </mxCell>
        <mxCell id="mps1uX8T5PpobUmjtMyG-235" value="" style="endArrow=none;html=1;strokeWidth=3;" parent="mps1uX8T5PpobUmjtMyG-231" edge="1">
          <mxGeometry width="50" height="50" relative="1" as="geometry">
            <mxPoint x="29.857142857142858" y="17.272727272727273" as="sourcePoint" />
            <mxPoint x="6.2857142857139285" y="17.272727272727273" as="targetPoint" />
            <Array as="points">
              <mxPoint x="29.857142857142858" y="17.272727272727273" />
            </Array>
          </mxGeometry>
        </mxCell>
        <mxCell id="mps1uX8T5PpobUmjtMyG-236" value="" style="endArrow=none;html=1;strokeWidth=3;" parent="mps1uX8T5PpobUmjtMyG-231" edge="1">
          <mxGeometry width="50" height="50" relative="1" as="geometry">
            <mxPoint x="29.857142857142858" y="21.818181818181817" as="sourcePoint" />
            <mxPoint x="6.2857142857139285" y="21.818181818181817" as="targetPoint" />
            <Array as="points">
              <mxPoint x="29.857142857142858" y="21.818181818181817" />
            </Array>
          </mxGeometry>
        </mxCell>
        <mxCell id="mps1uX8T5PpobUmjtMyG-243" value="" style="pointerEvents=1;shadow=0;dashed=0;html=1;strokeColor=none;fillColor=#505050;labelPosition=center;verticalLabelPosition=bottom;verticalAlign=top;outlineConnect=0;align=center;shape=mxgraph.office.servers.reverse_proxy;" parent="1" vertex="1">
          <mxGeometry x="454" y="480" width="76" height="83" as="geometry" />
        </mxCell>
        <mxCell id="mps1uX8T5PpobUmjtMyG-244" value="" style="endArrow=none;html=1;strokeWidth=1;edgeStyle=elbowEdgeStyle;startArrow=classic;startFill=1;endFill=0;" parent="1" target="mps1uX8T5PpobUmjtMyG-243" edge="1">
          <mxGeometry relative="1" as="geometry">
            <mxPoint x="399" y="433" as="sourcePoint" />
            <mxPoint x="499" y="433" as="targetPoint" />
          </mxGeometry>
        </mxCell>
        <mxCell id="mps1uX8T5PpobUmjtMyG-245" value="&lt;div style=&quot;font-size: 8px;&quot;&gt;TCP 31773&lt;/div&gt;" style="edgeLabel;resizable=0;html=1;align=center;verticalAlign=middle;fontSize=8;" parent="mps1uX8T5PpobUmjtMyG-244" connectable="0" vertex="1">
          <mxGeometry relative="1" as="geometry" />
        </mxCell>
        <mxCell id="mps1uX8T5PpobUmjtMyG-248" value="" style="endArrow=classic;html=1;strokeWidth=1;edgeStyle=orthogonalEdgeStyle;exitX=0.013;exitY=0.102;exitDx=0;exitDy=0;entryX=0.5;entryY=1;entryDx=0;entryDy=0;exitPerimeter=0;" parent="1" source="mps1uX8T5PpobUmjtMyG-214" target="mps1uX8T5PpobUmjtMyG-226" edge="1">
          <mxGeometry relative="1" as="geometry">
            <mxPoint x="409" y="443" as="sourcePoint" />
            <mxPoint x="464" y="546.5" as="targetPoint" />
          </mxGeometry>
        </mxCell>
        <mxCell id="mps1uX8T5PpobUmjtMyG-249" value="TCP 9200/9300" style="edgeLabel;resizable=0;html=1;align=center;verticalAlign=middle;fontSize=8;" parent="mps1uX8T5PpobUmjtMyG-248" connectable="0" vertex="1">
          <mxGeometry relative="1" as="geometry" />
        </mxCell>
        <mxCell id="mps1uX8T5PpobUmjtMyG-250" value="" style="endArrow=classic;html=1;strokeWidth=1;edgeStyle=orthogonalEdgeStyle;exitX=1.047;exitY=0.093;exitDx=0;exitDy=0;exitPerimeter=0;" parent="1" source="mps1uX8T5PpobUmjtMyG-214" edge="1">
          <mxGeometry relative="1" as="geometry">
            <mxPoint x="414.03999999999996" y="376.52" as="sourcePoint" />
            <mxPoint x="477" y="256" as="targetPoint" />
          </mxGeometry>
        </mxCell>
        <mxCell id="mps1uX8T5PpobUmjtMyG-251" value="TCP 9000/9092" style="edgeLabel;resizable=0;html=1;align=center;verticalAlign=middle;fontSize=8;" parent="mps1uX8T5PpobUmjtMyG-250" connectable="0" vertex="1">
          <mxGeometry relative="1" as="geometry" />
        </mxCell>
        <mxCell id="mps1uX8T5PpobUmjtMyG-252" value="" style="endArrow=classic;html=1;strokeWidth=1;entryX=0.5;entryY=1;entryDx=0;entryDy=0;edgeStyle=orthogonalEdgeStyle;" parent="1" target="mps1uX8T5PpobUmjtMyG-220" edge="1">
          <mxGeometry relative="1" as="geometry">
            <mxPoint x="347" y="342" as="sourcePoint" />
            <mxPoint x="279.81642857142856" y="257.36363636363603" as="targetPoint" />
          </mxGeometry>
        </mxCell>
        <mxCell id="mps1uX8T5PpobUmjtMyG-253" value="TCP 9042 / 9160" style="edgeLabel;resizable=0;html=1;align=center;verticalAlign=middle;fontSize=8;" parent="mps1uX8T5PpobUmjtMyG-252" connectable="0" vertex="1">
          <mxGeometry relative="1" as="geometry" />
        </mxCell>
        <mxCell id="mps1uX8T5PpobUmjtMyG-254" value="" style="rounded=1;whiteSpace=wrap;html=1;fontSize=8;strokeColor=#DBFFFF;strokeWidth=3;fillColor=#CFD3D4;" parent="1" vertex="1">
          <mxGeometry x="179" y="313" width="40" height="60" as="geometry" />
        </mxCell>
        <mxCell id="mps1uX8T5PpobUmjtMyG-255" value="&lt;div&gt;Asset&lt;/div&gt;&lt;div&gt;Host&lt;br&gt;&lt;/div&gt;" style="text;html=1;strokeColor=none;fillColor=none;align=center;verticalAlign=middle;whiteSpace=wrap;rounded=0;fontSize=8;fontColor=#696969;" parent="1" vertex="1">
          <mxGeometry x="179" y="332" width="40" height="20" as="geometry" />
        </mxCell>
        <mxCell id="mps1uX8T5PpobUmjtMyG-258" value="MinIO" style="text;html=1;strokeColor=none;fillColor=none;align=center;verticalAlign=middle;whiteSpace=wrap;rounded=0;fontSize=8;" parent="1" vertex="1">
          <mxGeometry x="445" y="159" width="40" height="20" as="geometry" />
        </mxCell>
        <mxCell id="mps1uX8T5PpobUmjtMyG-259" value="&lt;div&gt;Elastic&lt;/div&gt;&lt;div&gt;Search&lt;br&gt;&lt;/div&gt;" style="text;html=1;strokeColor=none;fillColor=none;align=center;verticalAlign=middle;whiteSpace=wrap;rounded=0;fontSize=8;" parent="1" vertex="1">
          <mxGeometry x="229" y="244" width="40" height="20" as="geometry" />
        </mxCell>
        <mxCell id="mps1uX8T5PpobUmjtMyG-260" value="Cassandra" style="text;html=1;strokeColor=none;fillColor=none;align=center;verticalAlign=middle;whiteSpace=wrap;rounded=0;fontSize=8;" parent="1" vertex="1">
          <mxGeometry x="327" y="203" width="40" height="20" as="geometry" />
        </mxCell>
        <mxCell id="mps1uX8T5PpobUmjtMyG-263" value="Load Balancer / Reverse Proxy" style="text;html=1;strokeColor=none;fillColor=none;align=center;verticalAlign=middle;whiteSpace=wrap;rounded=0;fontSize=8;" parent="1" vertex="1">
          <mxGeometry x="383" y="541" width="80" height="20" as="geometry" />
        </mxCell>
        <mxCell id="mps1uX8T5PpobUmjtMyG-264" value="" style="rounded=0;whiteSpace=wrap;html=1;fontSize=8;strokeColor=#6c8ebf;strokeWidth=3;fillColor=#dae8fc;" parent="1" vertex="1">
          <mxGeometry x="329" y="433" width="50" height="30" as="geometry" />
        </mxCell>
        <mxCell id="mps1uX8T5PpobUmjtMyG-265" value="WIRE" style="text;html=1;strokeColor=none;fillColor=none;align=center;verticalAlign=middle;whiteSpace=wrap;rounded=0;fontSize=8;fontColor=#0D0D0D;" parent="1" vertex="1">
          <mxGeometry x="334" y="438" width="40" height="20" as="geometry" />
        </mxCell>
        <mxCell id="mps1uX8T5PpobUmjtMyG-266" value="Server 2" style="text;html=1;strokeColor=none;fillColor=none;align=center;verticalAlign=middle;whiteSpace=wrap;rounded=0;fontSize=12;fontColor=#0D0D0D;fontStyle=1" parent="1" vertex="1">
          <mxGeometry x="317" y="143" width="57" height="20" as="geometry" />
        </mxCell>
        <mxCell id="mps1uX8T5PpobUmjtMyG-267" value="" style="group;opacity=30;fontColor=#999999;" parent="1" vertex="1" connectable="0">
          <mxGeometry x="727" y="343" width="90" height="160" as="geometry" />
        </mxCell>
        <mxCell id="mps1uX8T5PpobUmjtMyG-268" value="" style="rounded=0;whiteSpace=wrap;html=1;fillColor=none;strokeWidth=6;opacity=30;" parent="mps1uX8T5PpobUmjtMyG-267" vertex="1">
          <mxGeometry width="90" height="160" as="geometry" />
        </mxCell>
        <mxCell id="mps1uX8T5PpobUmjtMyG-269" value="" style="endArrow=none;html=1;strokeWidth=6;opacity=30;" parent="mps1uX8T5PpobUmjtMyG-267" edge="1">
          <mxGeometry width="50" height="50" relative="1" as="geometry">
            <mxPoint x="70" y="14" as="sourcePoint" />
            <mxPoint x="20" y="14" as="targetPoint" />
            <Array as="points">
              <mxPoint x="50" y="14" />
            </Array>
          </mxGeometry>
        </mxCell>
        <mxCell id="mps1uX8T5PpobUmjtMyG-270" value="" style="endArrow=none;html=1;strokeWidth=6;opacity=30;" parent="mps1uX8T5PpobUmjtMyG-267" edge="1">
          <mxGeometry width="50" height="50" relative="1" as="geometry">
            <mxPoint x="70" y="27" as="sourcePoint" />
            <mxPoint x="20" y="27" as="targetPoint" />
            <Array as="points">
              <mxPoint x="50" y="27" />
            </Array>
          </mxGeometry>
        </mxCell>
        <mxCell id="mps1uX8T5PpobUmjtMyG-271" value="" style="rounded=1;whiteSpace=wrap;html=1;strokeWidth=1;fillColor=#CFD3D4;opacity=30;" parent="mps1uX8T5PpobUmjtMyG-267" vertex="1">
          <mxGeometry x="10" y="40" width="70" height="110" as="geometry" />
        </mxCell>
        <mxCell id="mps1uX8T5PpobUmjtMyG-272" value="&lt;font&gt;Kubernetes&lt;/font&gt;" style="text;html=1;strokeColor=none;fillColor=none;align=center;verticalAlign=middle;whiteSpace=wrap;rounded=0;fontSize=8;opacity=30;fontColor=#828282;" parent="mps1uX8T5PpobUmjtMyG-267" vertex="1">
          <mxGeometry x="25" y="40" width="40" height="20" as="geometry" />
        </mxCell>
        <mxCell id="mps1uX8T5PpobUmjtMyG-273" value="" style="group;opacity=30;" parent="1" vertex="1" connectable="0">
          <mxGeometry x="747" y="233" width="55" height="100" as="geometry" />
        </mxCell>
        <mxCell id="mps1uX8T5PpobUmjtMyG-274" value="" style="rounded=0;whiteSpace=wrap;html=1;fillColor=none;strokeWidth=3;opacity=30;" parent="mps1uX8T5PpobUmjtMyG-273" vertex="1">
          <mxGeometry x="-1.5714285714285714" width="39.285714285714285" height="72.72727272727272" as="geometry" />
        </mxCell>
        <mxCell id="mps1uX8T5PpobUmjtMyG-275" value="" style="endArrow=none;html=1;strokeWidth=3;opacity=30;" parent="mps1uX8T5PpobUmjtMyG-273" edge="1">
          <mxGeometry width="50" height="50" relative="1" as="geometry">
            <mxPoint x="29.857142857142858" y="8.181818181818182" as="sourcePoint" />
            <mxPoint x="6.2857142857139285" y="8.181818181818182" as="targetPoint" />
            <Array as="points">
              <mxPoint x="29.857142857142858" y="8.181818181818182" />
            </Array>
          </mxGeometry>
        </mxCell>
        <mxCell id="mps1uX8T5PpobUmjtMyG-276" value="" style="endArrow=none;html=1;strokeWidth=3;opacity=30;" parent="mps1uX8T5PpobUmjtMyG-273" edge="1">
          <mxGeometry width="50" height="50" relative="1" as="geometry">
            <mxPoint x="29.857142857142858" y="12.727272727272727" as="sourcePoint" />
            <mxPoint x="6.2857142857139285" y="12.727272727272727" as="targetPoint" />
            <Array as="points">
              <mxPoint x="29.857142857142858" y="12.727272727272727" />
            </Array>
          </mxGeometry>
        </mxCell>
        <mxCell id="mps1uX8T5PpobUmjtMyG-277" value="" style="endArrow=none;html=1;strokeWidth=3;opacity=30;" parent="mps1uX8T5PpobUmjtMyG-273" edge="1">
          <mxGeometry width="50" height="50" relative="1" as="geometry">
            <mxPoint x="29.857142857142858" y="17.272727272727273" as="sourcePoint" />
            <mxPoint x="6.2857142857139285" y="17.272727272727273" as="targetPoint" />
            <Array as="points">
              <mxPoint x="29.857142857142858" y="17.272727272727273" />
            </Array>
          </mxGeometry>
        </mxCell>
        <mxCell id="mps1uX8T5PpobUmjtMyG-278" value="" style="endArrow=none;html=1;strokeWidth=3;opacity=30;" parent="mps1uX8T5PpobUmjtMyG-273" edge="1">
          <mxGeometry width="50" height="50" relative="1" as="geometry">
            <mxPoint x="29.857142857142858" y="21.818181818181817" as="sourcePoint" />
            <mxPoint x="6.2857142857139285" y="21.818181818181817" as="targetPoint" />
            <Array as="points">
              <mxPoint x="29.857142857142858" y="21.818181818181817" />
            </Array>
          </mxGeometry>
        </mxCell>
        <mxCell id="mps1uX8T5PpobUmjtMyG-279" value="" style="group;opacity=30;" parent="1" vertex="1" connectable="0">
          <mxGeometry x="648.5699999999999" y="183" width="55" height="100" as="geometry" />
        </mxCell>
        <mxCell id="mps1uX8T5PpobUmjtMyG-280" value="" style="rounded=0;whiteSpace=wrap;html=1;fillColor=none;strokeWidth=3;opacity=30;" parent="mps1uX8T5PpobUmjtMyG-279" vertex="1">
          <mxGeometry x="-1.5714285714285714" width="39.285714285714285" height="72.72727272727272" as="geometry" />
        </mxCell>
        <mxCell id="mps1uX8T5PpobUmjtMyG-281" value="" style="endArrow=none;html=1;strokeWidth=3;opacity=30;" parent="mps1uX8T5PpobUmjtMyG-279" edge="1">
          <mxGeometry width="50" height="50" relative="1" as="geometry">
            <mxPoint x="29.857142857142858" y="8.181818181818182" as="sourcePoint" />
            <mxPoint x="6.2857142857139285" y="8.181818181818182" as="targetPoint" />
            <Array as="points">
              <mxPoint x="29.857142857142858" y="8.181818181818182" />
            </Array>
          </mxGeometry>
        </mxCell>
        <mxCell id="mps1uX8T5PpobUmjtMyG-282" value="" style="endArrow=none;html=1;strokeWidth=3;opacity=30;" parent="mps1uX8T5PpobUmjtMyG-279" edge="1">
          <mxGeometry width="50" height="50" relative="1" as="geometry">
            <mxPoint x="29.857142857142858" y="12.727272727272727" as="sourcePoint" />
            <mxPoint x="6.2857142857139285" y="12.727272727272727" as="targetPoint" />
            <Array as="points">
              <mxPoint x="29.857142857142858" y="12.727272727272727" />
            </Array>
          </mxGeometry>
        </mxCell>
        <mxCell id="mps1uX8T5PpobUmjtMyG-283" value="" style="endArrow=none;html=1;strokeWidth=3;opacity=30;" parent="mps1uX8T5PpobUmjtMyG-279" edge="1">
          <mxGeometry width="50" height="50" relative="1" as="geometry">
            <mxPoint x="29.857142857142858" y="17.272727272727273" as="sourcePoint" />
            <mxPoint x="6.2857142857139285" y="17.272727272727273" as="targetPoint" />
            <Array as="points">
              <mxPoint x="29.857142857142858" y="17.272727272727273" />
            </Array>
          </mxGeometry>
        </mxCell>
        <mxCell id="mps1uX8T5PpobUmjtMyG-284" value="" style="endArrow=none;html=1;strokeWidth=3;opacity=30;" parent="mps1uX8T5PpobUmjtMyG-279" edge="1">
          <mxGeometry width="50" height="50" relative="1" as="geometry">
            <mxPoint x="29.857142857142858" y="21.818181818181817" as="sourcePoint" />
            <mxPoint x="6.2857142857139285" y="21.818181818181817" as="targetPoint" />
            <Array as="points">
              <mxPoint x="29.857142857142858" y="21.818181818181817" />
            </Array>
          </mxGeometry>
        </mxCell>
        <mxCell id="mps1uX8T5PpobUmjtMyG-285" value="" style="group;opacity=30;" parent="1" vertex="1" connectable="0">
          <mxGeometry x="867" y="183" width="55" height="100" as="geometry" />
        </mxCell>
        <mxCell id="mps1uX8T5PpobUmjtMyG-286" value="" style="rounded=0;whiteSpace=wrap;html=1;fillColor=none;strokeWidth=3;opacity=30;" parent="mps1uX8T5PpobUmjtMyG-285" vertex="1">
          <mxGeometry x="-1.5714285714285714" width="39.285714285714285" height="72.72727272727272" as="geometry" />
        </mxCell>
        <mxCell id="mps1uX8T5PpobUmjtMyG-287" value="" style="endArrow=none;html=1;strokeWidth=3;opacity=30;" parent="mps1uX8T5PpobUmjtMyG-285" edge="1">
          <mxGeometry width="50" height="50" relative="1" as="geometry">
            <mxPoint x="29.857142857142858" y="8.181818181818182" as="sourcePoint" />
            <mxPoint x="6.2857142857139285" y="8.181818181818182" as="targetPoint" />
            <Array as="points">
              <mxPoint x="29.857142857142858" y="8.181818181818182" />
            </Array>
          </mxGeometry>
        </mxCell>
        <mxCell id="mps1uX8T5PpobUmjtMyG-288" value="" style="endArrow=none;html=1;strokeWidth=3;opacity=30;" parent="mps1uX8T5PpobUmjtMyG-285" edge="1">
          <mxGeometry width="50" height="50" relative="1" as="geometry">
            <mxPoint x="29.857142857142858" y="12.727272727272727" as="sourcePoint" />
            <mxPoint x="6.2857142857139285" y="12.727272727272727" as="targetPoint" />
            <Array as="points">
              <mxPoint x="29.857142857142858" y="12.727272727272727" />
            </Array>
          </mxGeometry>
        </mxCell>
        <mxCell id="mps1uX8T5PpobUmjtMyG-289" value="" style="endArrow=none;html=1;strokeWidth=3;opacity=30;" parent="mps1uX8T5PpobUmjtMyG-285" edge="1">
          <mxGeometry width="50" height="50" relative="1" as="geometry">
            <mxPoint x="29.857142857142858" y="17.272727272727273" as="sourcePoint" />
            <mxPoint x="6.2857142857139285" y="17.272727272727273" as="targetPoint" />
            <Array as="points">
              <mxPoint x="29.857142857142858" y="17.272727272727273" />
            </Array>
          </mxGeometry>
        </mxCell>
        <mxCell id="mps1uX8T5PpobUmjtMyG-290" value="" style="endArrow=none;html=1;strokeWidth=3;opacity=30;" parent="mps1uX8T5PpobUmjtMyG-285" edge="1">
          <mxGeometry width="50" height="50" relative="1" as="geometry">
            <mxPoint x="29.857142857142858" y="21.818181818181817" as="sourcePoint" />
            <mxPoint x="6.2857142857139285" y="21.818181818181817" as="targetPoint" />
            <Array as="points">
              <mxPoint x="29.857142857142858" y="21.818181818181817" />
            </Array>
          </mxGeometry>
        </mxCell>
        <mxCell id="mps1uX8T5PpobUmjtMyG-297" value="" style="pointerEvents=1;shadow=0;dashed=0;html=1;strokeColor=none;fillColor=#505050;labelPosition=center;verticalLabelPosition=bottom;verticalAlign=top;outlineConnect=0;align=center;shape=mxgraph.office.servers.reverse_proxy;opacity=30;" parent="1" vertex="1">
          <mxGeometry x="872" y="510" width="41" height="53" as="geometry" />
        </mxCell>
        <mxCell id="mps1uX8T5PpobUmjtMyG-308" value="" style="rounded=1;whiteSpace=wrap;html=1;fontSize=8;strokeColor=#DBFFFF;strokeWidth=3;fillColor=#CFD3D4;opacity=30;" parent="1" vertex="1">
          <mxGeometry x="597" y="313" width="40" height="60" as="geometry" />
        </mxCell>
        <mxCell id="mps1uX8T5PpobUmjtMyG-312" value="MinIO" style="text;html=1;strokeColor=none;fillColor=none;align=center;verticalAlign=middle;whiteSpace=wrap;rounded=0;fontSize=8;opacity=30;fontColor=#999999;" parent="1" vertex="1">
          <mxGeometry x="647" y="163" width="40" height="20" as="geometry" />
        </mxCell>
        <mxCell id="mps1uX8T5PpobUmjtMyG-313" value="&lt;div&gt;Elastic&lt;/div&gt;&lt;div&gt;Search&lt;br&gt;&lt;/div&gt;" style="text;html=1;strokeColor=none;fillColor=none;align=center;verticalAlign=middle;whiteSpace=wrap;rounded=0;fontSize=8;opacity=30;fontColor=#999999;" parent="1" vertex="1">
          <mxGeometry x="865" y="159" width="40" height="20" as="geometry" />
        </mxCell>
        <mxCell id="mps1uX8T5PpobUmjtMyG-314" value="Cassandra" style="text;html=1;strokeColor=none;fillColor=none;align=center;verticalAlign=middle;whiteSpace=wrap;rounded=0;fontSize=8;opacity=30;fontColor=#999999;" parent="1" vertex="1">
          <mxGeometry x="745" y="211" width="40" height="20" as="geometry" />
        </mxCell>
        <mxCell id="mps1uX8T5PpobUmjtMyG-315" value="WIRE" style="text;html=1;strokeColor=none;fillColor=none;align=center;verticalAlign=middle;whiteSpace=wrap;rounded=0;fontSize=15;opacity=30;fontColor=#999999;" parent="1" vertex="1">
          <mxGeometry x="752" y="510" width="40" height="20" as="geometry" />
        </mxCell>
        <mxCell id="mps1uX8T5PpobUmjtMyG-317" value="Load Balancer / Reverse Proxy" style="text;html=1;strokeColor=none;fillColor=none;align=center;verticalAlign=middle;whiteSpace=wrap;rounded=0;fontSize=8;opacity=30;fontColor=#999999;" parent="1" vertex="1">
          <mxGeometry x="801" y="541" width="80" height="20" as="geometry" />
        </mxCell>
        <mxCell id="mps1uX8T5PpobUmjtMyG-318" value="" style="rounded=0;whiteSpace=wrap;html=1;fontSize=8;strokeColor=#6c8ebf;strokeWidth=3;fillColor=#dae8fc;opacity=30;" parent="1" vertex="1">
          <mxGeometry x="747" y="433" width="50" height="30" as="geometry" />
        </mxCell>
        <mxCell id="mps1uX8T5PpobUmjtMyG-319" value="WIRE" style="text;html=1;strokeColor=none;fillColor=none;align=center;verticalAlign=middle;whiteSpace=wrap;rounded=0;fontSize=8;opacity=30;fontColor=#999999;" parent="1" vertex="1">
          <mxGeometry x="752" y="438" width="40" height="20" as="geometry" />
        </mxCell>
        <mxCell id="mps1uX8T5PpobUmjtMyG-320" value="&lt;div style=&quot;font-size: 12px;&quot;&gt;Server 3&lt;/div&gt;&lt;div style=&quot;font-size: 12px;&quot;&gt;(same topology)&lt;/div&gt;" style="text;html=1;strokeColor=none;fillColor=none;align=center;verticalAlign=middle;whiteSpace=wrap;rounded=0;fontSize=12;fontStyle=1;opacity=30;fontColor=#999999;" parent="1" vertex="1">
          <mxGeometry x="717" y="143" width="100" height="20" as="geometry" />
        </mxCell>
        <mxCell id="mps1uX8T5PpobUmjtMyG-321" value="End Users" style="text;html=1;strokeColor=none;fillColor=none;align=center;verticalAlign=middle;whiteSpace=wrap;rounded=0;fontSize=8;opacity=30;" parent="1" vertex="1">
          <mxGeometry x="317" y="1263" width="40" height="20" as="geometry" />
        </mxCell>
        <mxCell id="mps1uX8T5PpobUmjtMyG-322" value="End Users" style="text;html=1;strokeColor=none;fillColor=none;align=center;verticalAlign=middle;whiteSpace=wrap;rounded=0;fontSize=8;fontColor=#000000;opacity=30;" parent="1" vertex="1">
          <mxGeometry x="154" y="1263" width="70" height="20" as="geometry" />
        </mxCell>
        <mxCell id="mps1uX8T5PpobUmjtMyG-323" value="End Users" style="text;html=1;strokeColor=none;fillColor=none;align=center;verticalAlign=middle;whiteSpace=wrap;rounded=0;fontSize=8;opacity=30;" parent="1" vertex="1">
          <mxGeometry x="-168" y="1271" width="40" height="20" as="geometry" />
        </mxCell>
        <mxCell id="mps1uX8T5PpobUmjtMyG-324" value="Internal Network" style="text;html=1;strokeColor=none;fillColor=none;align=center;verticalAlign=middle;whiteSpace=wrap;rounded=0;fontSize=12;fontColor=#000000;opacity=30;fontStyle=1" parent="1" vertex="1">
          <mxGeometry x="-259" y="1143" width="68" height="20" as="geometry" />
        </mxCell>
        <mxCell id="mps1uX8T5PpobUmjtMyG-325" value="Internet" style="text;html=1;strokeColor=none;fillColor=none;align=center;verticalAlign=middle;whiteSpace=wrap;rounded=0;fontSize=12;fontColor=#000000;opacity=30;fontStyle=1" parent="1" vertex="1">
          <mxGeometry x="348" y="1141.5" width="68" height="20" as="geometry" />
        </mxCell>
        <mxCell id="mps1uX8T5PpobUmjtMyG-327" value="Server Topology Legend" style="text;html=1;strokeColor=none;fillColor=none;align=center;verticalAlign=middle;whiteSpace=wrap;rounded=0;fontSize=10;fontColor=#000000;opacity=30;fontStyle=1" parent="1" vertex="1">
          <mxGeometry x="468" y="1007" width="128" height="20" as="geometry" />
        </mxCell>
        <mxCell id="mps1uX8T5PpobUmjtMyG-328" value="Wire Network Topology Diagram" style="text;strokeColor=none;fillColor=none;html=1;fontSize=24;fontStyle=1;verticalAlign=middle;align=center;fontColor=#000000;opacity=30;" parent="1" vertex="1">
          <mxGeometry x="297" y="73" width="100" height="40" as="geometry" />
        </mxCell>
        <mxCell id="mps1uX8T5PpobUmjtMyG-329" value="" style="endArrow=classic;html=1;shadow=0;fontSize=10;fontColor=#000000;strokeWidth=1;strokeColor=#080808;" parent="1" source="mps1uX8T5PpobUmjtMyG-179" target="mps1uX8T5PpobUmjtMyG-183" edge="1">
          <mxGeometry width="50" height="50" relative="1" as="geometry">
            <mxPoint x="219" y="1043" as="sourcePoint" />
            <mxPoint x="269" y="993" as="targetPoint" />
          </mxGeometry>
        </mxCell>
        <mxCell id="mps1uX8T5PpobUmjtMyG-337" value="" style="rounded=0;whiteSpace=wrap;html=1;fontSize=10;fontColor=#000000;strokeColor=#DBFFFF;strokeWidth=3;fillColor=#CFD3D4;opacity=0;" parent="1" vertex="1">
          <mxGeometry x="-33" y="1143" width="82" height="80" as="geometry" />
        </mxCell>
        <mxCell id="mps1uX8T5PpobUmjtMyG-339" value="" style="rounded=0;whiteSpace=wrap;html=1;fontSize=10;fontColor=#000000;strokeColor=#DBFFFF;strokeWidth=3;fillColor=#CFD3D4;opacity=0;" parent="1" vertex="1">
          <mxGeometry x="310.57" y="1161.5" width="53.43" height="101.5" as="geometry" />
        </mxCell>
        <mxCell id="mps1uX8T5PpobUmjtMyG-340" value="" style="rounded=0;whiteSpace=wrap;html=1;fontSize=10;fontColor=#000000;strokeColor=#DBFFFF;strokeWidth=3;fillColor=#CFD3D4;opacity=0;" parent="1" vertex="1">
          <mxGeometry x="126" y="1162.25" width="138" height="100.75" as="geometry" />
        </mxCell>
        <mxCell id="mps1uX8T5PpobUmjtMyG-345" value="" style="rounded=0;whiteSpace=wrap;html=1;fontSize=10;fontColor=#000000;strokeColor=#DBFFFF;strokeWidth=3;fillColor=#CFD3D4;opacity=0;" parent="1" vertex="1">
          <mxGeometry x="58" y="490" width="52" height="73" as="geometry" />
        </mxCell>
        <mxCell id="mps1uX8T5PpobUmjtMyG-346" value="" style="rounded=0;whiteSpace=wrap;html=1;fontSize=10;fontColor=#000000;strokeColor=#DBFFFF;strokeWidth=3;fillColor=#CFD3D4;opacity=0;textOpacity=0;" parent="1" vertex="1">
          <mxGeometry x="455" y="480" width="65" height="83" as="geometry" />
        </mxCell>
        <mxCell id="mps1uX8T5PpobUmjtMyG-206" value="WIRE" style="text;html=1;align=center;verticalAlign=middle;whiteSpace=wrap;rounded=0;fontSize=15;fillColor=#f5f5f5;strokeColor=#666666;fontColor=#333333;" parent="1" vertex="1">
          <mxGeometry x="-78" y="510" width="40" height="20" as="geometry" />
        </mxCell>
        <mxCell id="mps1uX8T5PpobUmjtMyG-326" value="Internet" style="text;html=1;strokeColor=#666666;fillColor=#f5f5f5;align=center;verticalAlign=middle;whiteSpace=wrap;rounded=0;fontSize=16;fontColor=#333333;opacity=30;fontStyle=1" parent="1" vertex="1">
          <mxGeometry x="-154" y="1060" width="68" height="20" as="geometry" />
        </mxCell>
        <mxCell id="mps1uX8T5PpobUmjtMyG-261" value="WIRE" style="text;html=1;strokeColor=#666666;fillColor=#f5f5f5;align=center;verticalAlign=middle;whiteSpace=wrap;rounded=0;fontSize=15;fontColor=#333333;" parent="1" vertex="1">
          <mxGeometry x="334" y="510" width="40" height="20" as="geometry" />
        </mxCell>
        <mxCell id="mps1uX8T5PpobUmjtMyG-354" value="Proxy" style="text;html=1;strokeColor=none;fillColor=none;align=center;verticalAlign=middle;whiteSpace=wrap;rounded=0;fontSize=10;fontColor=#000000;opacity=30;" parent="1" vertex="1">
          <mxGeometry x="-12" y="1223" width="40" height="20" as="geometry" />
        </mxCell>
        <mxCell id="mps1uX8T5PpobUmjtMyG-355" value="" style="endArrow=classic;html=1;strokeWidth=1;edgeStyle=orthogonalEdgeStyle;exitX=0.016;exitY=0.195;exitDx=0;exitDy=0;exitPerimeter=0;entryX=1;entryY=0.25;entryDx=0;entryDy=0;strokeColor=#9E9E9E;dashed=1;startArrow=classic;startFill=1;" parent="1" source="mps1uX8T5PpobUmjtMyG-232" target="mps1uX8T5PpobUmjtMyG-99" edge="1">
          <mxGeometry relative="1" as="geometry">
            <mxPoint x="-93.72000000000003" y="378.60000000000014" as="sourcePoint" />
            <mxPoint x="-153.35857142857162" y="265.727272727273" as="targetPoint" />
          </mxGeometry>
        </mxCell>
        <mxCell id="mps1uX8T5PpobUmjtMyG-356" value="&lt;div&gt;TCP 9000/9092&lt;br&gt;&lt;/div&gt;" style="edgeLabel;resizable=0;html=1;align=center;verticalAlign=middle;fontSize=8;" parent="mps1uX8T5PpobUmjtMyG-355" connectable="0" vertex="1">
          <mxGeometry relative="1" as="geometry">
            <mxPoint x="-45" as="offset" />
          </mxGeometry>
        </mxCell>
        <mxCell id="mps1uX8T5PpobUmjtMyG-358" value="" style="endArrow=classic;html=1;strokeWidth=1;edgeStyle=orthogonalEdgeStyle;exitX=0;exitY=0.25;exitDx=0;exitDy=0;entryX=1.025;entryY=0.12;entryDx=0;entryDy=0;strokeColor=#9E9E9E;dashed=1;startArrow=classic;startFill=1;entryPerimeter=0;" parent="1" source="mps1uX8T5PpobUmjtMyG-220" target="mps1uX8T5PpobUmjtMyG-93" edge="1">
          <mxGeometry relative="1" as="geometry">
            <mxPoint x="458.05714285714294" y="210.18181818181824" as="sourcePoint" />
            <mxPoint x="-133.7157142857145" y="211.18181818181824" as="targetPoint" />
          </mxGeometry>
        </mxCell>
        <mxCell id="mps1uX8T5PpobUmjtMyG-359" value="&lt;div&gt;TCP 7000&lt;/div&gt;" style="edgeLabel;resizable=0;html=1;align=center;verticalAlign=middle;fontSize=8;" parent="mps1uX8T5PpobUmjtMyG-358" connectable="0" vertex="1">
          <mxGeometry relative="1" as="geometry">
            <mxPoint x="-34" y="-4" as="offset" />
          </mxGeometry>
        </mxCell>
        <mxCell id="mps1uX8T5PpobUmjtMyG-360" value="" style="endArrow=classic;html=1;strokeWidth=1;edgeStyle=orthogonalEdgeStyle;exitX=0;exitY=0.25;exitDx=0;exitDy=0;entryX=1;entryY=0.25;entryDx=0;entryDy=0;strokeColor=#9E9E9E;dashed=1;startArrow=classic;startFill=1;" parent="1" source="mps1uX8T5PpobUmjtMyG-226" target="mps1uX8T5PpobUmjtMyG-106" edge="1">
          <mxGeometry relative="1" as="geometry">
            <mxPoint x="337.42857142857133" y="251.18181818181824" as="sourcePoint" />
            <mxPoint x="-34.30357142857133" y="251.72727272727275" as="targetPoint" />
          </mxGeometry>
        </mxCell>
        <mxCell id="mps1uX8T5PpobUmjtMyG-361" value="TCP 9200" style="edgeLabel;resizable=0;html=1;align=center;verticalAlign=middle;fontSize=8;" parent="mps1uX8T5PpobUmjtMyG-360" connectable="0" vertex="1">
          <mxGeometry relative="1" as="geometry">
            <mxPoint x="-46" y="-4" as="offset" />
          </mxGeometry>
        </mxCell>
        <mxCell id="mps1uX8T5PpobUmjtMyG-362" value="" style="endArrow=classic;html=1;strokeWidth=1;edgeStyle=orthogonalEdgeStyle;exitX=0;exitY=0.5;exitDx=0;exitDy=0;entryX=1;entryY=0.25;entryDx=0;entryDy=0;strokeColor=#9E9E9E;dashed=1;startArrow=classic;startFill=1;" parent="1" source="mps1uX8T5PpobUmjtMyG-226" target="mps1uX8T5PpobUmjtMyG-39" edge="1">
          <mxGeometry relative="1" as="geometry">
            <mxPoint x="238.99857142857104" y="296.18181818181824" as="sourcePoint" />
            <mxPoint x="84.71428571428578" y="296.18181818181824" as="targetPoint" />
          </mxGeometry>
        </mxCell>
        <mxCell id="mps1uX8T5PpobUmjtMyG-363" value="TCP 9200/9300" style="edgeLabel;resizable=0;html=1;align=center;verticalAlign=middle;fontSize=8;" parent="mps1uX8T5PpobUmjtMyG-362" connectable="0" vertex="1">
          <mxGeometry relative="1" as="geometry">
            <mxPoint x="-1" y="-4" as="offset" />
          </mxGeometry>
        </mxCell>
        <mxCell id="mps1uX8T5PpobUmjtMyG-364" value="" style="endArrow=classic;html=1;strokeWidth=1;edgeStyle=orthogonalEdgeStyle;exitX=1;exitY=0.75;exitDx=0;exitDy=0;entryX=0.011;entryY=0.385;entryDx=0;entryDy=0;strokeColor=#9E9E9E;dashed=1;startArrow=classic;startFill=1;entryPerimeter=0;" parent="1" source="mps1uX8T5PpobUmjtMyG-106" target="mps1uX8T5PpobUmjtMyG-214" edge="1">
          <mxGeometry relative="1" as="geometry">
            <mxPoint x="238.99857142857104" y="314.36363636363626" as="sourcePoint" />
            <mxPoint x="-3" y="393" as="targetPoint" />
            <Array as="points">
              <mxPoint x="157" y="323" />
              <mxPoint x="157" y="405" />
            </Array>
          </mxGeometry>
        </mxCell>
        <mxCell id="mps1uX8T5PpobUmjtMyG-365" value="&lt;div&gt;TCP 9200/9300&lt;/div&gt;" style="edgeLabel;resizable=0;html=1;align=center;verticalAlign=middle;fontSize=8;" parent="mps1uX8T5PpobUmjtMyG-364" connectable="0" vertex="1">
          <mxGeometry relative="1" as="geometry">
            <mxPoint x="91" y="4" as="offset" />
          </mxGeometry>
        </mxCell>
        <mxCell id="mps1uX8T5PpobUmjtMyG-366" value="" style="rounded=0;whiteSpace=wrap;html=1;fontSize=12;fontColor=#000000;strokeColor=#DBFFFF;strokeWidth=3;fillColor=#CFD3D4;opacity=20;" parent="1" vertex="1">
          <mxGeometry x="476" y="1012.25" width="60" height="169.5" as="geometry" />
        </mxCell>
        <mxCell id="mps1uX8T5PpobUmjtMyG-367" value="" style="rounded=1;whiteSpace=wrap;html=1;fontSize=8;strokeColor=#DBFFFF;strokeWidth=3;fillColor=#CFD3D4;" parent="1" vertex="1">
          <mxGeometry x="486.56999999999994" y="1217" width="40" height="60" as="geometry" />
        </mxCell>
        <mxCell id="mps1uX8T5PpobUmjtMyG-368" value="&lt;div&gt;Admin&lt;/div&gt;&lt;div&gt;and&lt;/div&gt;&lt;div&gt;Asset&lt;/div&gt;&lt;div&gt;Hosts&lt;br&gt;&lt;/div&gt;" style="text;html=1;strokeColor=none;fillColor=none;align=center;verticalAlign=middle;whiteSpace=wrap;rounded=0;fontSize=8;fontColor=#696969;" parent="1" vertex="1">
          <mxGeometry x="486.56999999999994" y="1236" width="40" height="20" as="geometry" />
        </mxCell>
        <mxCell id="mps1uX8T5PpobUmjtMyG-369" value="" style="endArrow=none;html=1;shadow=0;fontSize=10;fontColor=#000000;strokeWidth=2;edgeStyle=elbowEdgeStyle;elbow=vertical;exitX=0;exitY=0.25;exitDx=0;exitDy=0;endFill=0;strokeColor=#070808;entryX=1;entryY=0.25;entryDx=0;entryDy=0;" parent="1" source="mps1uX8T5PpobUmjtMyG-366" target="mps1uX8T5PpobUmjtMyG-366" edge="1">
          <mxGeometry width="50" height="50" relative="1" as="geometry">
            <mxPoint x="329.2850000000003" y="1034.5" as="sourcePoint" />
            <mxPoint x="388" y="887" as="targetPoint" />
            <Array as="points" />
          </mxGeometry>
        </mxCell>
        <mxCell id="mps1uX8T5PpobUmjtMyG-370" value="" style="endArrow=none;dashed=1;html=1;shadow=0;fontSize=10;fontColor=#000000;strokeWidth=2;edgeStyle=elbowEdgeStyle;elbow=vertical;dashPattern=1 1;exitX=1;exitY=0.5;exitDx=0;exitDy=0;entryX=0;entryY=0.5;entryDx=0;entryDy=0;strokeColor=#080400;" parent="1" source="mps1uX8T5PpobUmjtMyG-366" target="mps1uX8T5PpobUmjtMyG-366" edge="1">
          <mxGeometry width="50" height="50" relative="1" as="geometry">
            <mxPoint x="315.92750000000024" y="1035.5" as="sourcePoint" />
            <mxPoint x="-159" y="782" as="targetPoint" />
            <Array as="points" />
          </mxGeometry>
        </mxCell>
        <mxCell id="mps1uX8T5PpobUmjtMyG-371" value="" style="endArrow=none;dashed=1;html=1;shadow=0;fontSize=10;fontColor=#000000;strokeWidth=2;entryX=0;entryY=0.75;entryDx=0;entryDy=0;edgeStyle=elbowEdgeStyle;elbow=vertical;strokeColor=#CC6600;dashPattern=1 1;exitX=1;exitY=0.75;exitDx=0;exitDy=0;" parent="1" source="mps1uX8T5PpobUmjtMyG-366" target="mps1uX8T5PpobUmjtMyG-366" edge="1">
          <mxGeometry width="50" height="50" relative="1" as="geometry">
            <mxPoint x="15.5" y="1017" as="sourcePoint" />
            <mxPoint x="145.89285714285688" y="859.727272727273" as="targetPoint" />
            <Array as="points" />
          </mxGeometry>
        </mxCell>
        <mxCell id="mps1uX8T5PpobUmjtMyG-372" value="" style="endArrow=none;html=1;shadow=0;fontSize=10;fontColor=#000000;strokeWidth=2;edgeStyle=elbowEdgeStyle;elbow=vertical;exitX=0;exitY=1;exitDx=0;exitDy=0;endFill=0;entryX=1;entryY=1;entryDx=0;entryDy=0;strokeColor=#007FFF;" parent="1" source="mps1uX8T5PpobUmjtMyG-366" target="mps1uX8T5PpobUmjtMyG-366" edge="1">
          <mxGeometry width="50" height="50" relative="1" as="geometry">
            <mxPoint x="-8.999999999999773" y="1332" as="sourcePoint" />
            <mxPoint x="396.49999999999955" y="1207" as="targetPoint" />
            <Array as="points" />
          </mxGeometry>
        </mxCell>
        <mxCell id="mps1uX8T5PpobUmjtMyG-373" value="&lt;div style=&quot;font-size: 12px;&quot;&gt;= client connection via internet (www), TCP Port 443 traffic&lt;br style=&quot;font-size: 12px;&quot;&gt;&lt;/div&gt;" style="text;html=1;strokeColor=none;fillColor=none;align=left;verticalAlign=middle;whiteSpace=wrap;rounded=0;fontSize=12;fontColor=#000000;opacity=20;" parent="1" vertex="1">
          <mxGeometry x="541" y="1042" width="484" height="20" as="geometry" />
        </mxCell>
        <mxCell id="mps1uX8T5PpobUmjtMyG-374" value="&lt;div style=&quot;font-size: 12px&quot;&gt;= client connection via internet (www), UDP (voice/video calling),&lt;/div&gt;&lt;div style=&quot;font-size: 12px&quot;&gt;Ports 32768 - 61000 (as specificied in /proc/sys/net/ipv4/ip_local_port_range), adjustable based on customer requirements&lt;br style=&quot;font-size: 12px&quot;&gt;&lt;/div&gt;" style="text;html=1;strokeColor=none;fillColor=none;align=left;verticalAlign=middle;whiteSpace=wrap;rounded=0;fontSize=12;fontColor=#000000;opacity=20;" parent="1" vertex="1">
          <mxGeometry x="542" y="1075" width="484" height="50" as="geometry" />
        </mxCell>
        <mxCell id="mps1uX8T5PpobUmjtMyG-375" value="&lt;div style=&quot;font-size: 12px;&quot;&gt;= client connection via internal network or VPN connection, &lt;br style=&quot;font-size: 12px;&quot;&gt;&lt;/div&gt;&lt;div style=&quot;font-size: 12px;&quot;&gt;TCP Port 443 traffic&lt;br style=&quot;font-size: 12px;&quot;&gt;&lt;/div&gt;" style="text;html=1;strokeColor=none;fillColor=none;align=left;verticalAlign=middle;whiteSpace=wrap;rounded=0;fontSize=12;fontColor=#000000;opacity=20;" parent="1" vertex="1">
          <mxGeometry x="542" y="1161" width="484" height="50" as="geometry" />
        </mxCell>
        <mxCell id="mps1uX8T5PpobUmjtMyG-376" value="= client connection via internal network or VPN connection, UDP (voice/video calling),&amp;nbsp;&amp;nbsp;&amp;nbsp;&amp;nbsp;&amp;nbsp;&amp;nbsp;&amp;nbsp;&amp;nbsp; Ports 32768-61000 (as specificied in /proc/sys/net/ipv4/ip_local_port_range), adjustable based on customer requirements" style="text;html=1;strokeColor=none;fillColor=none;align=left;verticalAlign=middle;whiteSpace=wrap;rounded=0;fontSize=12;fontColor=#000000;opacity=20;" parent="1" vertex="1">
          <mxGeometry x="542" y="1118" width="484" height="50" as="geometry" />
        </mxCell>
        <mxCell id="mps1uX8T5PpobUmjtMyG-377" value="&lt;div style=&quot;font-size: 12px&quot;&gt;Admin Host communicates with all Wire backend components via port 22&lt;/div&gt;&lt;div style=&quot;font-size: 12px&quot;&gt;&lt;br style=&quot;font-size: 12px&quot;&gt;&lt;/div&gt;&lt;div style=&quot;font-size: 12px&quot;&gt;Asset Host - all Wire backend components communicate with the Asset Host via port 80&lt;br style=&quot;font-size: 12px&quot;&gt;&lt;/div&gt;&amp;nbsp;and port 8080" style="text;html=1;strokeColor=none;fillColor=none;align=left;verticalAlign=middle;whiteSpace=wrap;rounded=0;fontSize=12;fontColor=#000000;opacity=20;" parent="1" vertex="1">
          <mxGeometry x="542" y="1221" width="484" height="50" as="geometry" />
        </mxCell>
        <mxCell id="mps1uX8T5PpobUmjtMyG-408" value="" style="rounded=1;whiteSpace=wrap;html=1;fillColor=#bac8d3;strokeColor=#23445d;" parent="1" vertex="1">
          <mxGeometry x="-240" y="650" width="380" height="280" as="geometry" />
        </mxCell>
        <mxCell id="mps1uX8T5PpobUmjtMyG-409" value="" style="group" parent="1" vertex="1" connectable="0">
          <mxGeometry x="-100" y="710" width="90" height="160" as="geometry" />
        </mxCell>
        <mxCell id="mps1uX8T5PpobUmjtMyG-410" value="" style="rounded=0;whiteSpace=wrap;html=1;fillColor=none;strokeWidth=6;" parent="mps1uX8T5PpobUmjtMyG-409" vertex="1">
          <mxGeometry width="90" height="160" as="geometry" />
        </mxCell>
        <mxCell id="mps1uX8T5PpobUmjtMyG-411" value="" style="endArrow=none;html=1;strokeWidth=6;" parent="mps1uX8T5PpobUmjtMyG-409" edge="1">
          <mxGeometry width="50" height="50" relative="1" as="geometry">
            <mxPoint x="70" y="14" as="sourcePoint" />
            <mxPoint x="20" y="14" as="targetPoint" />
            <Array as="points">
              <mxPoint x="50" y="14" />
            </Array>
          </mxGeometry>
        </mxCell>
        <mxCell id="mps1uX8T5PpobUmjtMyG-412" value="" style="endArrow=none;html=1;strokeWidth=6;" parent="mps1uX8T5PpobUmjtMyG-409" edge="1">
          <mxGeometry width="50" height="50" relative="1" as="geometry">
            <mxPoint x="70" y="27" as="sourcePoint" />
            <mxPoint x="20" y="27" as="targetPoint" />
            <Array as="points">
              <mxPoint x="50" y="27" />
            </Array>
          </mxGeometry>
        </mxCell>
        <mxCell id="mps1uX8T5PpobUmjtMyG-413" value="" style="rounded=1;whiteSpace=wrap;html=1;strokeWidth=1;fillColor=#CFD3D4;" parent="mps1uX8T5PpobUmjtMyG-409" vertex="1">
          <mxGeometry x="10" y="40" width="70" height="110" as="geometry" />
        </mxCell>
        <mxCell id="mps1uX8T5PpobUmjtMyG-414" value="&lt;font color=&quot;#080808&quot;&gt;Kubernetes&lt;/font&gt;" style="text;html=1;strokeColor=none;fillColor=none;align=center;verticalAlign=middle;whiteSpace=wrap;rounded=0;fontSize=8;fontColor=#696969;" parent="mps1uX8T5PpobUmjtMyG-409" vertex="1">
          <mxGeometry x="25" y="40" width="40" height="20" as="geometry" />
        </mxCell>
        <mxCell id="mps1uX8T5PpobUmjtMyG-460" value="" style="rounded=0;whiteSpace=wrap;html=1;fontSize=8;strokeColor=#6c8ebf;strokeWidth=3;fillColor=#dae8fc;" parent="1" vertex="1">
          <mxGeometry x="-80" y="800" width="50" height="30" as="geometry" />
        </mxCell>
        <mxCell id="mps1uX8T5PpobUmjtMyG-461" value="SFT" style="text;html=1;strokeColor=none;fillColor=none;align=center;verticalAlign=middle;whiteSpace=wrap;rounded=0;fontSize=8;fontColor=#0D0D0D;" parent="1" vertex="1">
          <mxGeometry x="-75" y="805" width="40" height="20" as="geometry" />
        </mxCell>
        <mxCell id="mps1uX8T5PpobUmjtMyG-462" value="DMZ" style="text;html=1;strokeColor=none;fillColor=none;align=center;verticalAlign=middle;whiteSpace=wrap;rounded=0;fontSize=12;fontColor=#0D0D0D;fontStyle=1" parent="1" vertex="1">
          <mxGeometry x="-79" y="662" width="55" height="20" as="geometry" />
        </mxCell>
        <mxCell id="mps1uX8T5PpobUmjtMyG-189" value="" style="endArrow=classic;html=1;strokeWidth=1;edgeStyle=elbowEdgeStyle;exitX=0;exitY=0.5;exitDx=0;exitDy=0;dashed=1;entryX=1;entryY=0.75;entryDx=0;entryDy=0;" parent="1" source="mps1uX8T5PpobUmjtMyG-410" target="mps1uX8T5PpobUmjtMyG-112" edge="1">
          <mxGeometry relative="1" as="geometry">
            <mxPoint x="-230.00000000000045" y="342" as="sourcePoint" />
            <mxPoint x="-140" y="880" as="targetPoint" />
            <Array as="points">
              <mxPoint x="-140" y="840" />
            </Array>
          </mxGeometry>
        </mxCell>
        <mxCell id="mps1uX8T5PpobUmjtMyG-190" value="80, 1024-65535" style="edgeLabel;resizable=0;html=1;align=center;verticalAlign=middle;fontSize=8;" parent="mps1uX8T5PpobUmjtMyG-189" connectable="0" vertex="1">
          <mxGeometry relative="1" as="geometry" />
        </mxCell>
        <mxCell id="mps1uX8T5PpobUmjtMyG-112" value="" style="rounded=0;whiteSpace=wrap;html=1;fillColor=none;strokeWidth=3;" parent="1" vertex="1">
          <mxGeometry x="-216.07142857142858" y="825" width="39.285714285714285" height="72.72727272727272" as="geometry" />
        </mxCell>
        <mxCell id="mps1uX8T5PpobUmjtMyG-113" value="" style="endArrow=none;html=1;strokeWidth=3;" parent="1" edge="1">
          <mxGeometry width="50" height="50" relative="1" as="geometry">
            <mxPoint x="-184.64285714285714" y="833.1818181818181" as="sourcePoint" />
            <mxPoint x="-208.21428571428606" y="833.1818181818181" as="targetPoint" />
            <Array as="points">
              <mxPoint x="-184.64285714285714" y="833.1818181818181" />
            </Array>
          </mxGeometry>
        </mxCell>
        <mxCell id="mps1uX8T5PpobUmjtMyG-114" value="" style="endArrow=none;html=1;strokeWidth=3;" parent="1" edge="1">
          <mxGeometry width="50" height="50" relative="1" as="geometry">
            <mxPoint x="-184.64285714285714" y="837.7272727272727" as="sourcePoint" />
            <mxPoint x="-208.21428571428606" y="837.7272727272727" as="targetPoint" />
            <Array as="points">
              <mxPoint x="-184.64285714285714" y="837.7272727272727" />
            </Array>
          </mxGeometry>
        </mxCell>
        <mxCell id="mps1uX8T5PpobUmjtMyG-115" value="" style="endArrow=none;html=1;strokeWidth=3;" parent="1" edge="1">
          <mxGeometry width="50" height="50" relative="1" as="geometry">
            <mxPoint x="-184.64285714285714" y="842.2727272727273" as="sourcePoint" />
            <mxPoint x="-208.21428571428606" y="842.2727272727273" as="targetPoint" />
            <Array as="points">
              <mxPoint x="-184.64285714285714" y="842.2727272727273" />
            </Array>
          </mxGeometry>
        </mxCell>
        <mxCell id="mps1uX8T5PpobUmjtMyG-116" value="" style="endArrow=none;html=1;strokeWidth=3;" parent="1" edge="1">
          <mxGeometry width="50" height="50" relative="1" as="geometry">
            <mxPoint x="-184.64285714285714" y="846.8181818181819" as="sourcePoint" />
            <mxPoint x="-208.21428571428606" y="846.8181818181819" as="targetPoint" />
            <Array as="points">
              <mxPoint x="-184.64285714285714" y="846.8181818181819" />
            </Array>
          </mxGeometry>
        </mxCell>
        <mxCell id="mps1uX8T5PpobUmjtMyG-207" value="RESTUND" style="text;html=1;strokeColor=none;fillColor=none;align=center;verticalAlign=middle;whiteSpace=wrap;rounded=0;fontSize=8;" parent="1" vertex="1">
          <mxGeometry x="-216" y="800" width="40" height="20" as="geometry" />
        </mxCell>
        <mxCell id="mps1uX8T5PpobUmjtMyG-471" value="" style="rounded=1;whiteSpace=wrap;html=1;fillColor=#b1ddf0;strokeColor=#10739e;" parent="1" vertex="1">
          <mxGeometry x="167" y="650" width="380" height="280" as="geometry" />
        </mxCell>
        <mxCell id="mps1uX8T5PpobUmjtMyG-472" value="" style="group" parent="1" vertex="1" connectable="0">
          <mxGeometry x="307" y="710" width="90" height="160" as="geometry" />
        </mxCell>
        <mxCell id="mps1uX8T5PpobUmjtMyG-473" value="" style="rounded=0;whiteSpace=wrap;html=1;fillColor=none;strokeWidth=6;" parent="mps1uX8T5PpobUmjtMyG-472" vertex="1">
          <mxGeometry width="90" height="160" as="geometry" />
        </mxCell>
        <mxCell id="mps1uX8T5PpobUmjtMyG-474" value="" style="endArrow=none;html=1;strokeWidth=6;" parent="mps1uX8T5PpobUmjtMyG-472" edge="1">
          <mxGeometry width="50" height="50" relative="1" as="geometry">
            <mxPoint x="70" y="14" as="sourcePoint" />
            <mxPoint x="20" y="14" as="targetPoint" />
            <Array as="points">
              <mxPoint x="50" y="14" />
            </Array>
          </mxGeometry>
        </mxCell>
        <mxCell id="mps1uX8T5PpobUmjtMyG-475" value="" style="endArrow=none;html=1;strokeWidth=6;" parent="mps1uX8T5PpobUmjtMyG-472" edge="1">
          <mxGeometry width="50" height="50" relative="1" as="geometry">
            <mxPoint x="70" y="27" as="sourcePoint" />
            <mxPoint x="20" y="27" as="targetPoint" />
            <Array as="points">
              <mxPoint x="50" y="27" />
            </Array>
          </mxGeometry>
        </mxCell>
        <mxCell id="mps1uX8T5PpobUmjtMyG-476" value="" style="rounded=1;whiteSpace=wrap;html=1;strokeWidth=1;fillColor=#CFD3D4;" parent="mps1uX8T5PpobUmjtMyG-472" vertex="1">
          <mxGeometry x="10" y="40" width="70" height="110" as="geometry" />
        </mxCell>
        <mxCell id="mps1uX8T5PpobUmjtMyG-477" value="&lt;font color=&quot;#080808&quot;&gt;Kubernetes&lt;/font&gt;" style="text;html=1;strokeColor=none;fillColor=none;align=center;verticalAlign=middle;whiteSpace=wrap;rounded=0;fontSize=8;fontColor=#696969;" parent="mps1uX8T5PpobUmjtMyG-472" vertex="1">
          <mxGeometry x="25" y="40" width="40" height="20" as="geometry" />
        </mxCell>
        <mxCell id="mps1uX8T5PpobUmjtMyG-478" value="" style="rounded=0;whiteSpace=wrap;html=1;fontSize=8;strokeColor=#6c8ebf;strokeWidth=3;fillColor=#dae8fc;" parent="1" vertex="1">
          <mxGeometry x="327" y="800" width="50" height="30" as="geometry" />
        </mxCell>
        <mxCell id="mps1uX8T5PpobUmjtMyG-479" value="SFT" style="text;html=1;strokeColor=none;fillColor=none;align=center;verticalAlign=middle;whiteSpace=wrap;rounded=0;fontSize=8;fontColor=#0D0D0D;" parent="1" vertex="1">
          <mxGeometry x="332" y="805" width="40" height="20" as="geometry" />
        </mxCell>
        <mxCell id="mps1uX8T5PpobUmjtMyG-480" value="DMZ" style="text;html=1;strokeColor=none;fillColor=none;align=center;verticalAlign=middle;whiteSpace=wrap;rounded=0;fontSize=12;fontColor=#0D0D0D;fontStyle=1" parent="1" vertex="1">
          <mxGeometry x="328" y="662" width="55" height="20" as="geometry" />
        </mxCell>
        <mxCell id="mps1uX8T5PpobUmjtMyG-484" value="" style="endArrow=classic;html=1;strokeWidth=1;edgeStyle=elbowEdgeStyle;exitX=0;exitY=0.5;exitDx=0;exitDy=0;dashed=1;entryX=1;entryY=0.75;entryDx=0;entryDy=0;" parent="1" source="mps1uX8T5PpobUmjtMyG-473" target="mps1uX8T5PpobUmjtMyG-492" edge="1">
          <mxGeometry relative="1" as="geometry">
            <mxPoint x="176.99999999999955" y="342" as="sourcePoint" />
            <mxPoint x="267" y="880" as="targetPoint" />
            <Array as="points">
              <mxPoint x="267" y="840" />
            </Array>
          </mxGeometry>
        </mxCell>
        <mxCell id="mps1uX8T5PpobUmjtMyG-485" value="80, 1024-65535" style="edgeLabel;resizable=0;html=1;align=center;verticalAlign=middle;fontSize=8;" parent="mps1uX8T5PpobUmjtMyG-484" connectable="0" vertex="1">
          <mxGeometry relative="1" as="geometry" />
        </mxCell>
        <mxCell id="mps1uX8T5PpobUmjtMyG-492" value="" style="rounded=0;whiteSpace=wrap;html=1;fillColor=none;strokeWidth=3;" parent="1" vertex="1">
          <mxGeometry x="190.92857142857144" y="825" width="39.285714285714285" height="72.72727272727272" as="geometry" />
        </mxCell>
        <mxCell id="mps1uX8T5PpobUmjtMyG-493" value="" style="endArrow=none;html=1;strokeWidth=3;" parent="1" edge="1">
          <mxGeometry width="50" height="50" relative="1" as="geometry">
            <mxPoint x="222.35714285714266" y="833.181818181818" as="sourcePoint" />
            <mxPoint x="198.78571428571377" y="833.181818181818" as="targetPoint" />
            <Array as="points">
              <mxPoint x="222.3571428571429" y="833.1818181818181" />
            </Array>
          </mxGeometry>
        </mxCell>
        <mxCell id="mps1uX8T5PpobUmjtMyG-494" value="" style="endArrow=none;html=1;strokeWidth=3;" parent="1" edge="1">
          <mxGeometry width="50" height="50" relative="1" as="geometry">
            <mxPoint x="222.35714285714266" y="837.727272727273" as="sourcePoint" />
            <mxPoint x="198.78571428571377" y="837.727272727273" as="targetPoint" />
            <Array as="points">
              <mxPoint x="222.3571428571429" y="837.7272727272727" />
            </Array>
          </mxGeometry>
        </mxCell>
        <mxCell id="mps1uX8T5PpobUmjtMyG-495" value="" style="endArrow=none;html=1;strokeWidth=3;" parent="1" edge="1">
          <mxGeometry width="50" height="50" relative="1" as="geometry">
            <mxPoint x="222.35714285714266" y="842.2727272727275" as="sourcePoint" />
            <mxPoint x="198.78571428571377" y="842.2727272727275" as="targetPoint" />
            <Array as="points">
              <mxPoint x="222.3571428571429" y="842.2727272727273" />
            </Array>
          </mxGeometry>
        </mxCell>
        <mxCell id="mps1uX8T5PpobUmjtMyG-496" value="" style="endArrow=none;html=1;strokeWidth=3;" parent="1" edge="1">
          <mxGeometry width="50" height="50" relative="1" as="geometry">
            <mxPoint x="222.35714285714266" y="846.818181818182" as="sourcePoint" />
            <mxPoint x="198.78571428571377" y="846.818181818182" as="targetPoint" />
            <Array as="points">
              <mxPoint x="222.3571428571429" y="846.8181818181819" />
            </Array>
          </mxGeometry>
        </mxCell>
        <mxCell id="mps1uX8T5PpobUmjtMyG-497" value="RESTUND" style="text;html=1;strokeColor=none;fillColor=none;align=center;verticalAlign=middle;whiteSpace=wrap;rounded=0;fontSize=8;" parent="1" vertex="1">
          <mxGeometry x="191" y="800" width="40" height="20" as="geometry" />
        </mxCell>
        <mxCell id="mps1uX8T5PpobUmjtMyG-498" value="" style="rounded=1;whiteSpace=wrap;html=1;opacity=30;" parent="1" vertex="1">
          <mxGeometry x="580" y="650" width="380" height="280" as="geometry" />
        </mxCell>
        <mxCell id="mps1uX8T5PpobUmjtMyG-499" value="" style="group;opacity=30;" parent="1" vertex="1" connectable="0">
          <mxGeometry x="720" y="710" width="90" height="160" as="geometry" />
        </mxCell>
        <mxCell id="mps1uX8T5PpobUmjtMyG-500" value="" style="rounded=0;whiteSpace=wrap;html=1;fillColor=none;strokeWidth=6;opacity=30;" parent="mps1uX8T5PpobUmjtMyG-499" vertex="1">
          <mxGeometry width="90" height="160" as="geometry" />
        </mxCell>
        <mxCell id="mps1uX8T5PpobUmjtMyG-501" value="" style="endArrow=none;html=1;strokeWidth=6;opacity=30;" parent="mps1uX8T5PpobUmjtMyG-499" edge="1">
          <mxGeometry width="50" height="50" relative="1" as="geometry">
            <mxPoint x="70" y="14" as="sourcePoint" />
            <mxPoint x="20" y="14" as="targetPoint" />
            <Array as="points">
              <mxPoint x="50" y="14" />
            </Array>
          </mxGeometry>
        </mxCell>
        <mxCell id="mps1uX8T5PpobUmjtMyG-502" value="" style="endArrow=none;html=1;strokeWidth=6;opacity=30;" parent="mps1uX8T5PpobUmjtMyG-499" edge="1">
          <mxGeometry width="50" height="50" relative="1" as="geometry">
            <mxPoint x="70" y="27" as="sourcePoint" />
            <mxPoint x="20" y="27" as="targetPoint" />
            <Array as="points">
              <mxPoint x="50" y="27" />
            </Array>
          </mxGeometry>
        </mxCell>
        <mxCell id="mps1uX8T5PpobUmjtMyG-503" value="" style="rounded=1;whiteSpace=wrap;html=1;strokeWidth=1;fillColor=#CFD3D4;opacity=30;" parent="mps1uX8T5PpobUmjtMyG-499" vertex="1">
          <mxGeometry x="10" y="40" width="70" height="110" as="geometry" />
        </mxCell>
        <mxCell id="mps1uX8T5PpobUmjtMyG-504" value="&lt;font color=&quot;#080808&quot;&gt;Kubernetes&lt;/font&gt;" style="text;html=1;strokeColor=none;fillColor=none;align=center;verticalAlign=middle;whiteSpace=wrap;rounded=0;fontSize=8;fontColor=#696969;opacity=30;" parent="mps1uX8T5PpobUmjtMyG-499" vertex="1">
          <mxGeometry x="25" y="40" width="40" height="20" as="geometry" />
        </mxCell>
        <mxCell id="mps1uX8T5PpobUmjtMyG-505" value="" style="rounded=0;whiteSpace=wrap;html=1;fontSize=8;strokeColor=#6c8ebf;strokeWidth=3;fillColor=#dae8fc;opacity=30;" parent="1" vertex="1">
          <mxGeometry x="740" y="800" width="50" height="30" as="geometry" />
        </mxCell>
        <mxCell id="mps1uX8T5PpobUmjtMyG-506" value="SFT" style="text;html=1;strokeColor=none;fillColor=none;align=center;verticalAlign=middle;whiteSpace=wrap;rounded=0;fontSize=8;fontColor=#0D0D0D;opacity=30;" parent="1" vertex="1">
          <mxGeometry x="745" y="805" width="40" height="20" as="geometry" />
        </mxCell>
        <mxCell id="mps1uX8T5PpobUmjtMyG-507" value="DMZ" style="text;html=1;strokeColor=none;fillColor=none;align=center;verticalAlign=middle;whiteSpace=wrap;rounded=0;fontSize=12;fontColor=#0D0D0D;fontStyle=1;opacity=30;" parent="1" vertex="1">
          <mxGeometry x="741" y="662" width="55" height="20" as="geometry" />
        </mxCell>
        <mxCell id="mps1uX8T5PpobUmjtMyG-508" value="WIRE" style="text;html=1;align=center;verticalAlign=middle;whiteSpace=wrap;rounded=0;fontSize=15;fillColor=#f5f5f5;strokeColor=#666666;fontColor=#333333;opacity=30;" parent="1" vertex="1">
          <mxGeometry x="745" y="877" width="40" height="20" as="geometry" />
        </mxCell>
        <mxCell id="mps1uX8T5PpobUmjtMyG-525" value="" style="endArrow=classic;html=1;strokeWidth=1;edgeStyle=elbowEdgeStyle;entryX=0;entryY=0.25;entryDx=0;entryDy=0;shadow=0;startArrow=classic;startFill=1;strokeColor=#7A7A7A;exitX=1;exitY=0.25;exitDx=0;exitDy=0;" parent="1" source="mps1uX8T5PpobUmjtMyG-410" target="mps1uX8T5PpobUmjtMyG-473" edge="1">
          <mxGeometry relative="1" as="geometry">
            <mxPoint x="-4.547473508864641e-13" y="650" as="sourcePoint" />
            <mxPoint x="322" y="650" as="targetPoint" />
          </mxGeometry>
        </mxCell>
        <mxCell id="mps1uX8T5PpobUmjtMyG-526" value="&lt;div&gt;TCP 6443&lt;/div&gt;&lt;div&gt;TCP 2379 - 2380&lt;/div&gt;&lt;div&gt;TCP 10250/10251/10252/10255&lt;/div&gt;&lt;div&gt;TCP 3000-32767&lt;/div&gt;&lt;div&gt;TCP 6379&lt;br&gt;&lt;/div&gt;" style="edgeLabel;resizable=0;html=1;align=center;verticalAlign=middle;fontSize=8;" parent="mps1uX8T5PpobUmjtMyG-525" connectable="0" vertex="1">
          <mxGeometry relative="1" as="geometry">
            <mxPoint x="-9" y="2" as="offset" />
          </mxGeometry>
        </mxCell>
        <mxCell id="mps1uX8T5PpobUmjtMyG-527" value="" style="endArrow=none;dashed=1;html=1;shadow=0;fontSize=10;fontColor=#000000;strokeWidth=2;edgeStyle=elbowEdgeStyle;elbow=vertical;strokeColor=#CC6600;dashPattern=1 1;exitX=0.25;exitY=0;exitDx=0;exitDy=0;entryX=0.75;entryY=1;entryDx=0;entryDy=0;" parent="1" source="mps1uX8T5PpobUmjtMyG-337" target="mps1uX8T5PpobUmjtMyG-461" edge="1">
          <mxGeometry width="50" height="50" relative="1" as="geometry">
            <mxPoint x="53.069999999999936" y="1122" as="sourcePoint" />
            <mxPoint x="-90.93000000000006" y="909" as="targetPoint" />
            <Array as="points">
              <mxPoint x="-15.930000000000064" y="1027" />
            </Array>
          </mxGeometry>
        </mxCell>
        <mxCell id="mps1uX8T5PpobUmjtMyG-528" value="" style="endArrow=none;dashed=1;html=1;shadow=0;fontSize=10;fontColor=#000000;strokeWidth=2;edgeStyle=elbowEdgeStyle;elbow=vertical;dashPattern=1 1;strokeColor=#080400;entryX=0.25;entryY=1;entryDx=0;entryDy=0;" parent="1" source="mps1uX8T5PpobUmjtMyG-339" target="mps1uX8T5PpobUmjtMyG-461" edge="1">
          <mxGeometry width="50" height="50" relative="1" as="geometry">
            <mxPoint x="373.9975000000002" y="1140.5" as="sourcePoint" />
            <mxPoint x="-55" y="830" as="targetPoint" />
            <Array as="points">
              <mxPoint x="170" y="1060" />
            </Array>
          </mxGeometry>
        </mxCell>
        <mxCell id="mps1uX8T5PpobUmjtMyG-529" value="" style="endArrow=none;dashed=1;html=1;shadow=0;fontSize=10;fontColor=#000000;strokeWidth=2;entryX=0.25;entryY=1;entryDx=0;entryDy=0;edgeStyle=elbowEdgeStyle;elbow=vertical;strokeColor=#CC6600;dashPattern=1 1;exitX=0.75;exitY=0;exitDx=0;exitDy=0;" parent="1" source="mps1uX8T5PpobUmjtMyG-337" target="mps1uX8T5PpobUmjtMyG-479" edge="1">
          <mxGeometry width="50" height="50" relative="1" as="geometry">
            <mxPoint x="73.56999999999994" y="1144.0000000000005" as="sourcePoint" />
            <mxPoint x="321.06999999999994" y="909" as="targetPoint" />
            <Array as="points">
              <mxPoint x="194.06999999999994" y="1034" />
            </Array>
          </mxGeometry>
        </mxCell>
        <mxCell id="mps1uX8T5PpobUmjtMyG-530" value="" style="endArrow=none;dashed=1;html=1;shadow=0;fontSize=10;fontColor=#000000;strokeWidth=2;edgeStyle=elbowEdgeStyle;elbow=vertical;strokeColor=#CC6600;dashPattern=1 1;exitX=0.25;exitY=0;exitDx=0;exitDy=0;entryX=0.25;entryY=1;entryDx=0;entryDy=0;" parent="1" source="mps1uX8T5PpobUmjtMyG-337" target="mps1uX8T5PpobUmjtMyG-112" edge="1">
          <mxGeometry width="50" height="50" relative="1" as="geometry">
            <mxPoint x="53.069999999999936" y="1137" as="sourcePoint" />
            <mxPoint x="-217.85857142857162" y="968.727272727273" as="targetPoint" />
            <Array as="points">
              <mxPoint x="-85.93000000000006" y="1027" />
            </Array>
          </mxGeometry>
        </mxCell>
        <mxCell id="mps1uX8T5PpobUmjtMyG-531" value="" style="endArrow=none;dashed=1;html=1;shadow=0;fontSize=10;fontColor=#000000;strokeWidth=2;entryX=0.75;entryY=1;entryDx=0;entryDy=0;edgeStyle=elbowEdgeStyle;elbow=vertical;strokeColor=#CC6600;dashPattern=1 1;exitX=0.75;exitY=0;exitDx=0;exitDy=0;" parent="1" source="mps1uX8T5PpobUmjtMyG-337" target="mps1uX8T5PpobUmjtMyG-492" edge="1">
          <mxGeometry width="50" height="50" relative="1" as="geometry">
            <mxPoint x="90" y="1140" as="sourcePoint" />
            <mxPoint x="203.96285714285727" y="968.727272727273" as="targetPoint" />
            <Array as="points">
              <mxPoint x="124.06999999999994" y="1034" />
            </Array>
          </mxGeometry>
        </mxCell>
        <mxCell id="mps1uX8T5PpobUmjtMyG-532" value="" style="endArrow=none;dashed=1;html=1;shadow=0;fontSize=10;fontColor=#000000;strokeWidth=2;edgeStyle=elbowEdgeStyle;elbow=vertical;dashPattern=1 1;exitX=0.5;exitY=0;exitDx=0;exitDy=0;strokeColor=#080400;entryX=0.75;entryY=1;entryDx=0;entryDy=0;" parent="1" source="mps1uX8T5PpobUmjtMyG-340" edge="1">
          <mxGeometry width="50" height="50" relative="1" as="geometry">
            <mxPoint x="261" y="1162.25" as="sourcePoint" />
            <mxPoint x="-186.6071428571429" y="897.7272727272725" as="targetPoint" />
            <Array as="points">
              <mxPoint x="40" y="1060" />
            </Array>
          </mxGeometry>
        </mxCell>
        <mxCell id="mps1uX8T5PpobUmjtMyG-533" value="" style="endArrow=none;dashed=1;html=1;shadow=0;fontSize=10;fontColor=#000000;strokeWidth=2;edgeStyle=elbowEdgeStyle;elbow=vertical;dashPattern=1 1;entryX=0.75;entryY=1;entryDx=0;entryDy=0;strokeColor=#080400;exitX=0.5;exitY=0;exitDx=0;exitDy=0;" parent="1" source="mps1uX8T5PpobUmjtMyG-340" target="mps1uX8T5PpobUmjtMyG-479" edge="1">
          <mxGeometry width="50" height="50" relative="1" as="geometry">
            <mxPoint x="245.0700000000004" y="1141.25" as="sourcePoint" />
            <mxPoint x="331.06999999999994" y="891" as="targetPoint" />
            <Array as="points">
              <mxPoint x="310" y="1060" />
            </Array>
          </mxGeometry>
        </mxCell>
        <mxCell id="mps1uX8T5PpobUmjtMyG-534" value="" style="endArrow=none;dashed=1;html=1;shadow=0;fontSize=10;fontColor=#000000;strokeWidth=2;edgeStyle=elbowEdgeStyle;elbow=vertical;dashPattern=1 1;strokeColor=#080400;entryX=0.25;entryY=1;entryDx=0;entryDy=0;exitX=0.5;exitY=0;exitDx=0;exitDy=0;" parent="1" source="mps1uX8T5PpobUmjtMyG-340" target="mps1uX8T5PpobUmjtMyG-492" edge="1">
          <mxGeometry width="50" height="50" relative="1" as="geometry">
            <mxPoint x="245.06999999999948" y="1163" as="sourcePoint" />
            <mxPoint x="194.14142857142883" y="968.727272727273" as="targetPoint" />
            <Array as="points">
              <mxPoint x="230" y="1060" />
            </Array>
          </mxGeometry>
        </mxCell>
        <mxCell id="mps1uX8T5PpobUmjtMyG-464" value="WIRE" style="text;html=1;align=center;verticalAlign=middle;whiteSpace=wrap;rounded=0;fontSize=15;fillColor=#f5f5f5;strokeColor=#666666;fontColor=#333333;" parent="1" vertex="1">
          <mxGeometry x="-75" y="877" width="40" height="20" as="geometry" />
        </mxCell>
        <mxCell id="mps1uX8T5PpobUmjtMyG-481" value="WIRE" style="text;html=1;align=center;verticalAlign=middle;whiteSpace=wrap;rounded=0;fontSize=15;fillColor=#f5f5f5;strokeColor=#666666;fontColor=#333333;" parent="1" vertex="1">
          <mxGeometry x="332" y="877" width="40" height="20" as="geometry" />
        </mxCell>
        <mxCell id="mps1uX8T5PpobUmjtMyG-406" value="" style="endArrow=classic;html=1;strokeWidth=2;edgeStyle=elbowEdgeStyle;shadow=0;startArrow=classic;startFill=1;strokeColor=#7A7A7A;elbow=vertical;exitX=0.5;exitY=1;exitDx=0;exitDy=0;entryX=0.5;entryY=1;entryDx=0;entryDy=0;" parent="1" source="mps1uX8T5PpobUmjtMyG-112" target="mps1uX8T5PpobUmjtMyG-492" edge="1">
          <mxGeometry relative="1" as="geometry">
            <mxPoint x="-198" y="950" as="sourcePoint" />
            <mxPoint x="214" y="950" as="targetPoint" />
            <Array as="points">
              <mxPoint x="10" y="970" />
            </Array>
          </mxGeometry>
        </mxCell>
        <mxCell id="mps1uX8T5PpobUmjtMyG-407" value="80, 1024-65535" style="edgeLabel;resizable=0;html=1;align=center;verticalAlign=middle;fontSize=8;" parent="mps1uX8T5PpobUmjtMyG-406" connectable="0" vertex="1">
          <mxGeometry relative="1" as="geometry" />
        </mxCell>
        <mxCell id="mps1uX8T5PpobUmjtMyG-541" value="" style="group" parent="1" vertex="1" connectable="0">
          <mxGeometry x="-90" y="620" width="200" height="380" as="geometry" />
        </mxCell>
        <mxCell id="mps1uX8T5PpobUmjtMyG-400" value="" style="endArrow=none;html=1;shadow=0;fontSize=10;fontColor=#000000;strokeWidth=2;edgeStyle=elbowEdgeStyle;exitX=0.75;exitY=0;exitDx=0;exitDy=0;endFill=0;strokeColor=#070808;elbow=vertical;" parent="mps1uX8T5PpobUmjtMyG-541" source="mps1uX8T5PpobUmjtMyG-340" edge="1">
          <mxGeometry width="50" height="50" relative="1" as="geometry">
            <mxPoint x="368.21000000000004" y="460" as="sourcePoint" />
            <mxPoint x="-170" y="10" as="targetPoint" />
            <Array as="points">
              <mxPoint x="110" y="380" />
            </Array>
          </mxGeometry>
        </mxCell>
        <mxCell id="mps1uX8T5PpobUmjtMyG-401" value="" style="endArrow=none;html=1;shadow=0;fontSize=10;fontColor=#000000;strokeWidth=2;edgeStyle=elbowEdgeStyle;elbow=vertical;exitX=0.75;exitY=0;exitDx=0;exitDy=0;endFill=0;strokeColor=#070808;" parent="mps1uX8T5PpobUmjtMyG-541" source="mps1uX8T5PpobUmjtMyG-339" edge="1">
          <mxGeometry width="50" height="50" relative="1" as="geometry">
            <mxPoint x="544.9949999999999" y="459.25" as="sourcePoint" />
            <mxPoint x="-170" y="40" as="targetPoint" />
            <Array as="points">
              <mxPoint x="160" y="380" />
            </Array>
          </mxGeometry>
        </mxCell>
        <mxCell id="mps1uX8T5PpobUmjtMyG-535" value="" style="endArrow=none;html=1;shadow=0;fontSize=10;fontColor=#000000;strokeWidth=2;edgeStyle=elbowEdgeStyle;endFill=0;strokeColor=#070808;elbow=vertical;entryX=0.25;entryY=1;entryDx=0;entryDy=0;" parent="mps1uX8T5PpobUmjtMyG-541" target="mps1uX8T5PpobUmjtMyG-346" edge="1">
          <mxGeometry width="50" height="50" relative="1" as="geometry">
            <mxPoint x="-170" y="10" as="sourcePoint" />
            <mxPoint x="-890" y="56" as="targetPoint" />
            <Array as="points">
              <mxPoint x="200" />
            </Array>
          </mxGeometry>
        </mxCell>
        <mxCell id="mps1uX8T5PpobUmjtMyG-536" value="" style="endArrow=none;html=1;shadow=0;fontSize=10;fontColor=#000000;strokeWidth=2;edgeStyle=elbowEdgeStyle;endFill=0;strokeColor=#070808;elbow=vertical;entryX=0.25;entryY=1;entryDx=0;entryDy=0;" parent="mps1uX8T5PpobUmjtMyG-541" target="mps1uX8T5PpobUmjtMyG-345" edge="1">
          <mxGeometry width="50" height="50" relative="1" as="geometry">
            <mxPoint x="-170" y="6" as="sourcePoint" />
            <mxPoint x="150" y="-50" as="targetPoint" />
            <Array as="points">
              <mxPoint />
            </Array>
          </mxGeometry>
        </mxCell>
        <mxCell id="mps1uX8T5PpobUmjtMyG-542" value="" style="group" parent="1" vertex="1" connectable="0">
          <mxGeometry x="-100" y="590" width="210" height="500" as="geometry" />
        </mxCell>
        <mxCell id="mps1uX8T5PpobUmjtMyG-397" value="" style="endArrow=none;html=1;shadow=0;fontSize=10;fontColor=#000000;strokeWidth=2;edgeStyle=elbowEdgeStyle;elbow=vertical;exitX=0.5;exitY=0;exitDx=0;exitDy=0;endFill=0;strokeColor=#007FFF;" parent="mps1uX8T5PpobUmjtMyG-542" source="mps1uX8T5PpobUmjtMyG-337" edge="1">
          <mxGeometry width="50" height="50" relative="1" as="geometry">
            <mxPoint x="23.499999999999545" y="566.5" as="sourcePoint" />
            <mxPoint x="-180" y="60" as="targetPoint" />
            <Array as="points">
              <mxPoint y="500" />
            </Array>
          </mxGeometry>
        </mxCell>
        <mxCell id="mps1uX8T5PpobUmjtMyG-537" value="" style="endArrow=none;html=1;shadow=0;fontSize=10;fontColor=#000000;strokeWidth=2;edgeStyle=elbowEdgeStyle;elbow=vertical;endFill=0;strokeColor=#007FFF;exitX=0.656;exitY=1;exitDx=0;exitDy=0;exitPerimeter=0;" parent="mps1uX8T5PpobUmjtMyG-542" source="mps1uX8T5PpobUmjtMyG-345" edge="1">
          <mxGeometry width="50" height="50" relative="1" as="geometry">
            <mxPoint x="179" y="729" as="sourcePoint" />
            <mxPoint x="-180" y="66" as="targetPoint" />
            <Array as="points">
              <mxPoint x="10" />
            </Array>
          </mxGeometry>
        </mxCell>
        <mxCell id="mps1uX8T5PpobUmjtMyG-538" value="" style="endArrow=none;html=1;shadow=0;fontSize=10;fontColor=#000000;strokeWidth=2;edgeStyle=elbowEdgeStyle;elbow=vertical;endFill=0;strokeColor=#007FFF;" parent="mps1uX8T5PpobUmjtMyG-542" source="mps1uX8T5PpobUmjtMyG-243" edge="1">
          <mxGeometry width="50" height="50" relative="1" as="geometry">
            <mxPoint x="580" as="sourcePoint" />
            <mxPoint x="-180" y="56" as="targetPoint" />
            <Array as="points">
              <mxPoint x="210" />
            </Array>
          </mxGeometry>
        </mxCell>
      </root>
    </mxGraphModel>
  </diagram>
</mxfile>
